<svg xmlns="http://www.w3.org/2000/svg" viewBox="0 0 20 20"><defs><style>.cls-1{fill:#fff;}</style></defs><g id="Layer_2" data-name="Layer 2"><g id="レイヤー_2" data-name="レイヤー 2"><path class="cls-1" d="M14.15,20H5.85A5.86,5.86,0,0,1,0,14.15V5.85A5.86,5.86,0,0,1,5.85,0h8.3A5.86,5.86,0,0,1,20,5.85v8.3A5.85,5.85,0,0,1,14.15,20ZM5.85,1.87a4,4,0,0,0-4,4v8.3a4,4,0,0,0,4,4h8.3a4,4,0,0,0,4-4V5.85a4,4,0,0,0-4-4Z"/><path class="cls-1" d="M16.59,4.67a1.25,1.25,0,1,1-1.24-1.25A1.24,1.24,0,0,1,16.59,4.67Z"/><path class="cls-1" d="M10,15.17A5.17,5.17,0,1,1,15.17,10,5.18,5.18,0,0,1,10,15.17ZM10,6.7A3.3,3.3,0,1,0,13.31,10,3.3,3.3,0,0,0,10,6.7Z"/></g></g></svg>