<svg xmlns="http://www.w3.org/2000/svg" width="301" height="51" viewBox="0 0 301 51">
  <g id="Group_314" data-name="Group 314" transform="translate(-549.5 -3712.295)">
    <g id="Group_311" data-name="Group 311">
      <path id="Path_18568" data-name="Path 18568" d="M608.95,3737.9c0-4.88,3.16-7.741,7.1-7.741a6.227,6.227,0,0,1,4.581,1.9l-1.58,1.879a3.891,3.891,0,0,0-2.9-1.24c-2.46,0-4.18,1.921-4.18,5.1,0,3.22,1.48,5.161,4.381,5.161a2.979,2.979,0,0,0,1.86-.561v-2.92h-2.62v-2.42h5.261v6.681a6.972,6.972,0,0,1-4.8,1.78C612.011,3745.523,608.95,3742.843,608.95,3737.9Z" fill="#c8161d"/>
      <path id="Path_18569" data-name="Path 18569" d="M623.09,3739.662c0-3.741,2.581-5.9,5.381-5.9s5.382,2.16,5.382,5.9c0,3.7-2.582,5.861-5.382,5.861S623.09,3743.363,623.09,3739.662Zm7.762,0c0-2.12-.861-3.5-2.381-3.5s-2.38,1.381-2.38,3.5c0,2.1.86,3.461,2.38,3.461S630.852,3741.763,630.852,3739.662Z" fill="#c8161d"/>
      <path id="Path_18570" data-name="Path 18570" d="M635.61,3739.662c0-3.741,2.58-5.9,5.381-5.9s5.381,2.16,5.381,5.9c0,3.7-2.58,5.861-5.381,5.861S635.61,3743.363,635.61,3739.662Zm7.762,0c0-2.12-.86-3.5-2.381-3.5s-2.381,1.381-2.381,3.5c0,2.1.861,3.461,2.381,3.461S643.372,3741.763,643.372,3739.662Z" fill="#c8161d"/>
      <path id="Path_18571" data-name="Path 18571" d="M648.09,3747.224a2.719,2.719,0,0,1,1.6-2.321v-.1a2.123,2.123,0,0,1-1.02-1.88,2.781,2.781,0,0,1,1.24-2.1v-.08a3.7,3.7,0,0,1-1.48-2.921c0-2.64,2.14-4.06,4.521-4.06a5.271,5.271,0,0,1,1.68.28h4.041v2.16h-1.92a2.818,2.818,0,0,1,.519,1.7c0,2.521-1.919,3.8-4.32,3.8a4.735,4.735,0,0,1-1.44-.26,1.114,1.114,0,0,0-.481.96c0,.6.441.921,1.761.921h1.9c2.7,0,4.162.84,4.162,2.8,0,2.261-2.341,3.981-6.082,3.981C650.131,3750.1,648.09,3749.2,648.09,3747.224Zm7.962-.6c0-.8-.66-1-1.861-1h-1.36a6.31,6.31,0,0,1-1.56-.16,1.683,1.683,0,0,0-.741,1.3c0,.94,1.04,1.48,2.681,1.48C654.892,3748.244,656.052,3747.5,656.052,3746.624Zm-1.361-8.8c0-1.32-.74-2.06-1.74-2.06s-1.761.74-1.761,2.06a1.818,1.818,0,0,0,1.761,2.061C653.932,3739.882,654.691,3739.142,654.691,3737.821Z" fill="#c8161d"/>
      <path id="Path_18572" data-name="Path 18572" d="M660.77,3742.1V3729.28h2.92v12.962c0,.66.32.881.6.881a1.656,1.656,0,0,0,.4-.04l.361,2.18a4.011,4.011,0,0,1-1.521.26C661.489,3745.523,660.77,3744.183,660.77,3742.1Z" fill="#c8161d"/>
      <path id="Path_18573" data-name="Path 18573" d="M666.369,3739.662c0-3.641,2.541-5.9,5.221-5.9,3.081,0,4.681,2.26,4.681,5.361a5.461,5.461,0,0,1-.14,1.34h-6.9a2.944,2.944,0,0,0,3.1,2.8,4.618,4.618,0,0,0,2.521-.781l1,1.8a7.071,7.071,0,0,1-3.921,1.24C668.81,3745.523,666.369,3743.343,666.369,3739.662Zm7.382-1.141c0-1.52-.681-2.48-2.121-2.48a2.527,2.527,0,0,0-2.441,2.48Z" fill="#c8161d"/>
      <path id="Path_18574" data-name="Path 18574" d="M699.713,3732.641a5.491,5.491,0,0,0-.68.839,33.333,33.333,0,0,1-6.821,7.822c1.14,1.14,2.32,2.441,3.1,3.381l-2.341,1.86a55.635,55.635,0,0,0-3.821-4.32,42.433,42.433,0,0,0-4.4-3.841l2.12-1.7c.8.6,2.121,1.679,3.381,2.78a22.161,22.161,0,0,0,5.081-5.761H684.75c-.8,0-1.88.1-2.3.14v-2.8a19.223,19.223,0,0,0,2.3.18h11.1a6.469,6.469,0,0,0,1.86-.22Z" fill="#c8161d"/>
      <path id="Path_18575" data-name="Path 18575" d="M705.712,3738.962l-2.441.92a40.227,40.227,0,0,0-1.821-4.621l2.4-.86C704.352,3735.421,705.312,3737.842,705.712,3738.962Zm10.162-4.161c-.24.64-.36,1.06-.48,1.46a16.153,16.153,0,0,1-2.721,5.862,15.617,15.617,0,0,1-6.7,4.96l-2.1-2.14a11.8,11.8,0,0,0,9.182-11.043Zm-5.741,2.921-2.4.84a33.176,33.176,0,0,0-1.62-4.441l2.381-.78C708.872,3734.2,709.853,3736.8,710.133,3737.722Z" fill="#c8161d"/>
      <path id="Path_18576" data-name="Path 18576" d="M730.192,3731.04a8.847,8.847,0,0,0,1.141-.08,2.212,2.212,0,0,1-.04-.38,2.39,2.39,0,1,1,2.4,2.38,1.126,1.126,0,0,1-.259-.02l-.161.6a20.179,20.179,0,0,1-3,7.281,15.829,15.829,0,0,1-8.042,5.522l-2.18-2.381a13.155,13.155,0,0,0,7.842-4.7,12.835,12.835,0,0,0,2.36-5.641h-9.321c-.921,0-1.861.04-2.381.08v-2.821a22.267,22.267,0,0,0,2.381.16Zm4.641-.46a1.15,1.15,0,1,0-1.14,1.14A1.157,1.157,0,0,0,734.833,3730.58Z" fill="#c8161d"/>
      <path id="Path_18577" data-name="Path 18577" d="M738.051,3731.46c1.66-.14,4.94-.44,8.561-.76,2.04-.16,4.2-.28,5.6-.34l.019,2.561a20.371,20.371,0,0,0-3.82.26,6.013,6.013,0,0,0-4.182,5.541c0,3.26,3.041,4.441,6.4,4.6l-.92,2.74c-4.161-.26-8.082-2.5-8.082-6.8a7.855,7.855,0,0,1,2.921-6.1c-1.721.18-5.881.62-8.182,1.12l-.26-2.72C736.91,3731.54,737.67,3731.5,738.051,3731.46Zm13,6.1-1.52.68a15.513,15.513,0,0,0-1.56-2.781l1.48-.62A26.221,26.221,0,0,1,751.053,3737.562Zm2.321-.981-1.5.721a17.546,17.546,0,0,0-1.64-2.7l1.46-.68A30.187,30.187,0,0,1,753.374,3736.581Z" fill="#c8161d"/>
      <path id="Path_18578" data-name="Path 18578" d="M769.993,3744.563c.68,0,.8-.34.9-2.661a7.578,7.578,0,0,0,2.18.941c-.261,3.16-.881,3.98-2.861,3.98h-2.641c-2.38,0-2.94-.719-2.94-2.96v-3.2h-2.42c-.421,3.181-1.6,5.281-6.542,6.4a7.537,7.537,0,0,0-1.32-2.12c4.1-.76,4.961-2.1,5.3-4.281h-2.44V3728.92h13.082v11.742h-3.261v3.181c0,.64.12.72.881.72Zm-10.482-12.323h8.362V3731h-8.362Zm0,3.161h8.362v-1.24h-8.362Zm0,3.181h8.362v-1.24h-8.362Z" fill="#c8161d"/>
      <path id="Path_18579" data-name="Path 18579" d="M788.573,3731.521q-.719.449-1.38.9c-1.06.741-3.14,2.5-4.38,3.5a6.658,6.658,0,0,1,1.86-.22c3.36,0,5.921,2.1,5.921,4.981,0,3.121-2.381,5.6-7.161,5.6-2.761,0-4.842-1.26-4.842-3.24a3.329,3.329,0,0,1,3.561-3.081,3.988,3.988,0,0,1,4.221,3.381,2.888,2.888,0,0,0,1.62-2.7c0-1.78-1.8-2.98-4.1-2.98-3.041,0-5.022,1.62-7.142,4.021l-1.8-1.861c1.4-1.14,3.781-3.161,4.961-4.121,1.1-.92,3.161-2.58,4.142-3.44-1.021.019-3.741.139-4.782.219a13.052,13.052,0,0,0-1.62.161l-.08-2.581c.56.06,1.241.1,1.8.1,1.041,0,5.281-.1,6.4-.2a9.556,9.556,0,0,0,1.521-.2Zm-4.48,12.462c-.12-1.28-.861-2.121-1.941-2.121-.74,0-1.22.441-1.22.941,0,.74.839,1.24,2,1.24A10.445,10.445,0,0,0,784.093,3743.983Z" fill="#c8161d"/>
    </g>
    <g id="Group_313" data-name="Group 313">
      <g id="Group_312" data-name="Group 312">
        <path id="Path_18580" data-name="Path 18580" d="M576.522,3722.141a12.353,12.353,0,0,0-12.352,12.353c0,6.822,9.709,17.647,12.352,17.647s12.353-10.825,12.353-17.647A12.353,12.353,0,0,0,576.522,3722.141Zm0,18.023a5.671,5.671,0,1,1,5.671-5.67A5.671,5.671,0,0,1,576.522,3740.164Z" fill="#c8161d"/>
      </g>
    </g>
    <rect id="Rectangle_3863" data-name="Rectangle 3863" width="300" height="50" transform="translate(550 3712.795)" fill="none" stroke="#c8161d" stroke-miterlimit="10" stroke-width="1"/>
  </g>
</svg>
