<svg xmlns="http://www.w3.org/2000/svg" width="514.825" height="114.328" viewBox="0 0 514.825 114.328"><g transform="translate(-618.209 -2886.407)"><rect width="513.947" height="32.678" transform="matrix(0.999, -0.039, 0.039, 0.999, 618.209, 2968.082)" fill="#fccf00"/><path d="M645.569,2972.483a4.543,4.543,0,0,1-1.339,3.3q-1.462,1.689-2.452,2.637a24.722,24.722,0,0,1-2.2,1.586q-1.915,1.3-2.04-.144a105.4,105.4,0,0,1,.248-24.95q1.607-12.628,4.12-24.7,2.349-11.373,5.769-23.612a112.73,112.73,0,0,0-27.9,11.414q-1.319.784-1.442-1.4a20.767,20.767,0,0,1-.041-2.885q.206-1.4.679-3.544a4.4,4.4,0,0,1,1.916-3.008,100.888,100.888,0,0,1,15.473-7.458,135.156,135.156,0,0,1,16.379-5.068,17.154,17.154,0,0,1,2.308-2.2,3.537,3.537,0,0,1,2.967-.887q1.152.248,1.029,1.731,6.016-1.194,12.094-2t12.218-1.339q1.812-.125,1.2,5.377t-3.338,5.748q-6.552.576-13.042,1.463t-12.876,2.246q-2.926,9.972-5.274,21.385-2.349,11.249-4.018,23.034A93.9,93.9,0,0,0,645.569,2972.483Z" fill="#c30d23"/><path d="M681.594,2929.3q-3.337,9.313-6.324,18.77a167.916,167.916,0,0,0-4.842,19.181,6.8,6.8,0,0,1-2.019,3.358,28.271,28.271,0,0,1-2.926,2.575,10.433,10.433,0,0,1-1.957,1.113q-1.257.578-1.01-1.154a166.1,166.1,0,0,1,4-17.224q2.473-8.569,5.316-16.976a18.334,18.334,0,0,1-5.892,6.263,12.666,12.666,0,0,1-2.123.865q-1.668.579-.8-1.112a47.343,47.343,0,0,1,5.233-7.685,70.218,70.218,0,0,1,6.469-6.778q1.812-5.151,3.791-10.24t4.2-10.075q1.854-4.161,4.141-8.282a35.681,35.681,0,0,1,5.5-7.458,23.832,23.832,0,0,1,2.72-2.081q2.1-1.462,3.131-.1a16.28,16.28,0,0,1,3.05,7.314q.7,4.224,1.153,7.932.125,1.236.247,2.513t.247,2.514q3.626-1.607,7.459-3.09a32.8,32.8,0,0,1,7.871-1.979q1.728-.163,1.173,1.134a9.414,9.414,0,0,1-1.132,2.039,12.854,12.854,0,0,1-6.182,4.575q-4.078,1.277-8.776,2.925.411,6.427.577,14.463.205,12.074.041,25.3-.042,3.915-.021,7.85t-.309,7.808a6.645,6.645,0,0,1-1.524,3.667,10.78,10.78,0,0,1-3.009,2.638,5.552,5.552,0,0,1-2.781.577q-1.422-.082-1.545-1.978a68.144,68.144,0,0,1-.124-7.871q.165-3.954.289-7.911.081-5.934.123-11.908t-.041-11.95q-.082-4.2-.185-8.468t-.35-8.509q-2.719,1.237-5.852,3.05-1.73,1.03-3.5,2.122T681.594,2929.3Zm2.308-6.015q2.6-1.771,4.862-3.214,3.132-1.937,5.316-3.132c-.056-.412-.1-.824-.144-1.236s-.077-.825-.1-1.237q-.249-2.1-.8-6.036t-.886-3.976q-.371,0-1.339,2.307t-1.216,2.926q-1.443,3.42-2.884,6.8T683.9,2923.284Z" fill="#c30d23"/><path d="M721.76,2926.085q-.413,2.02-.823,4.018t-.784,4.018q6.963-8.036,18.13-19t18.872-17.718q1.648-1.441,1.649-.536a7.444,7.444,0,0,1-.783,2.678,33.513,33.513,0,0,1-1.917,3.667,14.753,14.753,0,0,1-1.667,2.432q-12.9,12.321-22.478,21.941t-9.5,10.735q0,1.111,6.778,4.635a90.1,90.1,0,0,1,11.97,7.356q4.821,3.585,9.7,6.8t9.992,6.428q1.936,1.236-1.051,6t-4.923,3.523q-5.235-3.3-10.24-6.882t-9.951-7.252q-3.708-2.718-8.447-5.974t-8.241-5.975q-.866,6.346-1.133,12.712a87.061,87.061,0,0,0,.391,12.712,4.709,4.709,0,0,1-1.484,3.481q-1.647,1.875-2.266,2.452a23.839,23.839,0,0,1-2.41,1.751q-1.71,1.133-1.834-.308a107.586,107.586,0,0,1,.268-24.93q1.586-12.648,4.1-24.682,1.113-5.6,2.431-11.187t2.926-11.1q.988-3.462,2.431-7.458a19.53,19.53,0,0,1,3.338-6.181,8.611,8.611,0,0,1,4.635-2.8q2.781-.658,1.463,3.3-2.225,6.429-4.883,15T721.76,2926.085Z" fill="#c30d23"/><path d="M756.043,2948.5q-.534.578-1.133,1.154c-.4.386-.789.769-1.175,1.154q-1.317,1.318-1.483-.289a9.5,9.5,0,0,1-.041-2.307,13.833,13.833,0,0,1,3.585-7.994q-.041-13.266.824-25.424l-.947.948-.948.948a30.176,30.176,0,0,1-2.617,2.451,4.508,4.508,0,0,1-3.276,1.257q-1.111-.039-.227-1.38t1.092-1.587a90.041,90.041,0,0,1,18.44-15.679,114.616,114.616,0,0,1,21.777-10.816q1.606-.576,2.287.392a2.3,2.3,0,0,1,.062,2.369,9.938,9.938,0,0,1-2.514,3.3,7.371,7.371,0,0,1-3.585,1.936,44.706,44.706,0,0,0-10.919,3.5,68.969,68.969,0,0,0-10.755,6.057q-.865,12.609-.535,24.311a80.406,80.406,0,0,1,10.074-6.943,51.009,51.009,0,0,1,11.147-4.842q1.977-.576.947,4.677t-3.173,6a72.467,72.467,0,0,0-18.625,9.889q.454,7.747,1.649,16.688.288,2.308.6,4.636a21.847,21.847,0,0,0,1.092,4.512,13.057,13.057,0,0,0,1.175,2.534,2.348,2.348,0,0,0,2.287,1.3,10.075,10.075,0,0,0,5.13-1.772q2.492-1.649,4.636-3.008,3.048-1.937,6.139-4.244t6.016-4.533q2.8-2.1,5.542-4.532a26.7,26.7,0,0,1,5.913-4,7.584,7.584,0,0,1,2.41-.68,1.81,1.81,0,0,1,2.04,1.216,3.1,3.1,0,0,1,0,2.328,16.272,16.272,0,0,1-.989,2.122,20.61,20.61,0,0,1-5.81,6.222q-3.79,2.76-7.005,5.027-3.544,2.514-7.21,4.883t-7.376,4.594a74.6,74.6,0,0,1-10.837,5.212q-6.634,2.658-9.807-3.893a18.359,18.359,0,0,1-1.648-5.44q-.414-2.883-.743-5.686-.493-4.119-.906-8.241T756.043,2948.5Z" fill="#c30d23"/><path d="M849.425,2980.436q-7.5-.743-11-10.2a69,69,0,0,1-4.038-20.83,92.069,92.069,0,0,1,1.318-21.283q1.854-9.909,5.151-11.516a2.43,2.43,0,0,1,3.09.515,2.006,2.006,0,0,1,.453,2.7q-2.224,3.379-3.111,10.754a80.175,80.175,0,0,0-.329,15.246,64.5,64.5,0,0,0,2.6,14.484q2.039,6.612,5.666,8.426,5.726,2.927,10.672-1.69a42.092,42.092,0,0,0,8.694-12.114,91.9,91.9,0,0,0,6.1-15.637,96.865,96.865,0,0,0,2.925-12.3,45.707,45.707,0,0,0-.536-16.688q-1.771-7.418-13.267-6.1a25.788,25.788,0,0,0-10.59,3.585,56.56,56.56,0,0,0-8.984,6.757,2.474,2.474,0,0,1-2.451.845q-1.215-.35-1.5-2.122a8.421,8.421,0,0,1,2.472-7.582,58.142,58.142,0,0,1,8.509-7.087,30.976,30.976,0,0,1,10.116-4.533,36.024,36.024,0,0,1,9.292-.906,13.308,13.308,0,0,1,8.715,2.925,14.45,14.45,0,0,1,4.368,7.087,37.419,37.419,0,0,1,1.421,9.333,58.884,58.884,0,0,1-.515,9.745q-.659,4.821-1.4,8.2-1.112,4.819-3.791,13.515a105.932,105.932,0,0,1-6.942,17.038,57.41,57.41,0,0,1-10.055,14.237Q856.676,2981.136,849.425,2980.436Z" fill="#c30d23"/><path d="M882.4,2907.337a5.4,5.4,0,0,1,1.381-3.234,29.965,29.965,0,0,1,2.493-2.658q.125-.123,2.184-1.525t1.978.082q-.371,8.283-.433,16.132t.186,16.091q0,.825.206,5.852t.514,10.775q.309,5.748.68,10.445t.742,4.822q.371.206,2-1.4t3.544-3.791q1.915-2.184,3.626-4.3a30.79,30.79,0,0,0,2.246-3.029q3.091-5.193,5.707-10.116a73.612,73.612,0,0,0,4.594-10.693q1.69-4.986,3.091-10.095t2.637-10.3q.742-3.13,1.421-6.345a64.64,64.64,0,0,1,1.669-6.3,9.51,9.51,0,0,1,5.44-5.851q2.718-1.236,2.637,1.278a329,329,0,0,1-4.121,40.133,178.9,178.9,0,0,0-2.06,40.176,4.765,4.765,0,0,1-1.257,3.111,12.924,12.924,0,0,1-2.967,2.8,5.711,5.711,0,0,1-3.049,1.113q-1.422.019-1.463-1.875-.082-1.772.474-9.025t1.257-15.245q.7-7.994,1.257-14.36t.514-6.408q-.081,0-3.626,8.056a89.206,89.206,0,0,1-9.394,16.173,52.424,52.424,0,0,1-10.116,10.631,68.374,68.374,0,0,1-8.674,6.015,5.054,5.054,0,0,1-1.69.433q-1.153.145-1.4-2.163-.988-8.446-1.628-16.152t-.845-16.236q-.206-8.239-.165-16.481T882.4,2907.337Z" fill="#c30d23"/><path d="M954.235,2972.483a4.547,4.547,0,0,1-1.339,3.3q-1.462,1.689-2.452,2.637a24.706,24.706,0,0,1-2.2,1.586q-1.915,1.3-2.04-.144a105.444,105.444,0,0,1,.247-24.95q1.608-12.628,4.121-24.7,2.349-11.373,5.769-23.612a112.786,112.786,0,0,0-27.9,11.414q-1.317.784-1.441-1.4a20.99,20.99,0,0,1-.042-2.885q.207-1.4.681-3.544a4.394,4.394,0,0,1,1.916-3.008,100.831,100.831,0,0,1,15.472-7.458,135.1,135.1,0,0,1,16.379-5.068,17.15,17.15,0,0,1,2.308-2.2,3.537,3.537,0,0,1,2.967-.887q1.152.248,1.03,1.731,6.015-1.194,12.094-2t12.217-1.339q1.812-.125,1.2,5.377t-3.338,5.748q-6.551.576-13.041,1.463t-12.877,2.246q-2.927,9.972-5.274,21.385-2.349,11.249-4.018,23.034A93.9,93.9,0,0,0,954.235,2972.483Z" fill="#c30d23"/><path d="M1021.087,2980.436q-7.5-.743-11-10.2a69,69,0,0,1-4.038-20.83,92.072,92.072,0,0,1,1.318-21.283q1.855-9.909,5.151-11.516a2.43,2.43,0,0,1,3.09.515,2.008,2.008,0,0,1,.454,2.7q-2.226,3.379-3.112,10.754a80.17,80.17,0,0,0-.329,15.246,64.489,64.489,0,0,0,2.6,14.484q2.038,6.612,5.666,8.426,5.726,2.927,10.672-1.69a42.092,42.092,0,0,0,8.694-12.114,91.883,91.883,0,0,0,6.1-15.637,96.857,96.857,0,0,0,2.925-12.3,45.708,45.708,0,0,0-.536-16.688q-1.772-7.418-13.267-6.1a25.787,25.787,0,0,0-10.59,3.585,56.505,56.505,0,0,0-8.983,6.757,2.476,2.476,0,0,1-2.452.845q-1.215-.35-1.5-2.122a8.421,8.421,0,0,1,2.472-7.582,58.142,58.142,0,0,1,8.509-7.087,30.976,30.976,0,0,1,10.116-4.533,36.029,36.029,0,0,1,9.292-.906,13.308,13.308,0,0,1,8.715,2.925,14.436,14.436,0,0,1,4.368,7.087,37.422,37.422,0,0,1,1.421,9.333,58.9,58.9,0,0,1-.515,9.745q-.658,4.821-1.4,8.2-1.111,4.819-3.791,13.515a105.926,105.926,0,0,1-6.942,17.038,57.41,57.41,0,0,1-10.055,14.237Q1028.34,2981.136,1021.087,2980.436Z" fill="#c30d23"/><path d="M1065.2,2926.085q-.411,2.02-.823,4.018t-.783,4.018q6.961-8.036,18.13-19t18.872-17.718q1.647-1.441,1.648-.536a7.445,7.445,0,0,1-.783,2.678,33.519,33.519,0,0,1-1.916,3.667,14.8,14.8,0,0,1-1.668,2.432q-12.9,12.321-22.478,21.941t-9.5,10.735q0,1.111,6.779,4.635a90.152,90.152,0,0,1,11.969,7.356q4.821,3.585,9.7,6.8t9.993,6.428q1.936,1.236-1.051,6t-4.924,3.523q-5.233-3.3-10.239-6.882t-9.951-7.252q-3.71-2.718-8.448-5.974t-8.241-5.975q-.866,6.346-1.133,12.712a87.353,87.353,0,0,0,.391,12.712,4.712,4.712,0,0,1-1.483,3.481q-1.648,1.875-2.266,2.452a24.1,24.1,0,0,1-2.411,1.751q-1.71,1.133-1.833-.308a107.528,107.528,0,0,1,.267-24.93q1.587-12.648,4.1-24.682,1.113-5.6,2.432-11.187t2.925-11.1q.99-3.462,2.431-7.458a19.533,19.533,0,0,1,3.338-6.181,8.611,8.611,0,0,1,4.636-2.8q2.78-.658,1.463,3.3-2.226,6.429-4.883,15T1065.2,2926.085Z" fill="#c30d23"/><path d="M1112.228,2916.65q-1.238,7.169-3.194,18.46a72.972,72.972,0,0,0-.721,21.386,3.958,3.958,0,0,1-1.524,2.987q-1.65,1.628-2.267,2.122a21.148,21.148,0,0,1-2.389,1.545q-1.731,1.011-1.855-.268a107.406,107.406,0,0,1,0-23.8,167.623,167.623,0,0,1,3.338-21.612,129.151,129.151,0,0,1,4.863-15.864,44.281,44.281,0,0,1,7.292-12.775,8.887,8.887,0,0,1,2.184-1.71,4.26,4.26,0,0,1,2.844-.679q.947.165.988.969a3.08,3.08,0,0,1-.206,1.379q-2.718,6.842-5.438,13.763A69.774,69.774,0,0,0,1112.228,2916.65Zm-4.245,51.713a3.929,3.929,0,0,1,3.524,1.792,4.976,4.976,0,0,1,.473,4.264,8.588,8.588,0,0,1-2.905,4.328,7.043,7.043,0,0,1-4.512,1.771,3.945,3.945,0,0,1-3.522-1.771,5.09,5.09,0,0,1-.475-4.328,8.429,8.429,0,0,1,2.885-4.264A7.068,7.068,0,0,1,1107.983,2968.363Z" fill="#c30d23"/></g></svg>