<svg xmlns="http://www.w3.org/2000/svg" width="30.001" height="30" viewBox="0 0 30.001 30">
  <g id="Group_76" data-name="Group 76" transform="translate(1138.863 -3540.959)">
    <path id="Path_2857" data-name="Path 2857" d="M-1120.334,3561.427a.97.97,0,0,0-1.3-.069l-1.825,1.471a.968.968,0,0,1-1.234-.014,24.626,24.626,0,0,1-3.27-2.761,24.556,24.556,0,0,1-2.761-3.27.97.97,0,0,1-.013-1.234l1.47-1.825a.968.968,0,0,0-.069-1.294l-3.493-3.494a.973.973,0,0,0-1.311-.057l-4.382,3.681a.968.968,0,0,0-.23,1.2s.589,1.2,1.136,2.123a43.39,43.39,0,0,0,6.124,7.7,43.358,43.358,0,0,0,7.7,6.125c.92.546,2.123,1.137,2.123,1.137a.971.971,0,0,0,1.2-.232l3.681-4.382a.972.972,0,0,0-.057-1.311Z" fill="#c8161d"/>
    <path id="Path_2858" data-name="Path 2858" d="M-1119.473,3556.741l1.454-.23a7.683,7.683,0,0,0-2.162-4.234,7.693,7.693,0,0,0-4.233-2.162l-.231,1.454a6.217,6.217,0,0,1,3.422,1.749A6.2,6.2,0,0,1-1119.473,3556.741Z" fill="#c8161d"/>
    <path id="Path_2859" data-name="Path 2859" d="M-1113.624,3545.721a16.9,16.9,0,0,0-9.344-4.762l-.229,1.455a15.424,15.424,0,0,1,8.531,4.348,15.432,15.432,0,0,1,4.349,8.532l1.455-.23A16.9,16.9,0,0,0-1113.624,3545.721Z" fill="#c8161d"/>
    <path id="Path_2860" data-name="Path 2860" d="M-1123.692,3545.532l-.228,1.456a10.8,10.8,0,0,1,5.982,3.046,10.785,10.785,0,0,1,3.046,5.983l1.455-.23a12.268,12.268,0,0,0-3.458-6.8A12.29,12.29,0,0,0-1123.692,3545.532Z" fill="#c8161d"/>
  </g>
</svg>
