<svg xmlns="http://www.w3.org/2000/svg" viewBox="0 0 514.82 114.33"><defs><style>.cls-1{fill:#fccf00;}.cls-2{fill:#c30d23;}</style></defs><g id="Layer_2" data-name="Layer 2"><g id="レイヤー_1" data-name="レイヤー 1"><rect class="cls-1" x="0.44" y="71.75" width="513.95" height="32.68" transform="translate(-3.21 10) rotate(-2.21)"/><path class="cls-2" d="M27.36,86.08A4.51,4.51,0,0,1,26,89.37c-1,1.13-1.79,2-2.45,2.64a26.43,26.43,0,0,1-2.2,1.59q-1.92,1.29-2-.15a105.29,105.29,0,0,1,.24-25q1.61-12.63,4.12-24.7Q26,32.43,29.46,20.19A112.9,112.9,0,0,0,1.57,31.6c-.88.52-1.36.06-1.45-1.4a22.23,22.23,0,0,1,0-2.88c.14-.94.37-2.12.68-3.55a4.4,4.4,0,0,1,1.92-3,100.47,100.47,0,0,1,15.47-7.46A132.64,132.64,0,0,1,34.53,8.24,17.81,17.81,0,0,1,36.84,6a3.53,3.53,0,0,1,3-.88c.77.16,1.12.74,1,1.73q6-1.2,12.1-2T65.15,3.54q1.8-.12,1.19,5.38c-.41,3.67-1.52,5.58-3.34,5.75q-6.54.57-13,1.46c-4.32.59-8.62,1.34-12.87,2.25q-2.94,10-5.28,21.38-2.36,11.25-4,23A94.26,94.26,0,0,0,27.36,86.08Z"/><path class="cls-2" d="M63.39,42.89Q60,52.21,57.06,61.66a169.8,169.8,0,0,0-4.84,19.18,6.77,6.77,0,0,1-2,3.36,27,27,0,0,1-2.93,2.58,11.2,11.2,0,0,1-2,1.11c-.84.38-1.18,0-1-1.16a167.35,167.35,0,0,1,4-17.22q2.48-8.57,5.32-17a18.36,18.36,0,0,1-5.89,6.27,13,13,0,0,1-2.12.86c-1.12.39-1.38,0-.81-1.11A47.94,47.94,0,0,1,50,50.87a70.3,70.3,0,0,1,6.47-6.78q1.81-5.16,3.79-10.24T64.5,23.77q1.84-4.15,4.14-8.28A35.61,35.61,0,0,1,74.14,8,24.71,24.71,0,0,1,76.86,6c1.4-1,2.44-1,3.13-.1A16.27,16.27,0,0,1,83,13.16c.47,2.82.85,5.46,1.15,7.94.09.82.17,1.66.25,2.51s.17,1.69.25,2.51c2.42-1.07,4.9-2.1,7.46-3.09a32.57,32.57,0,0,1,7.87-2q1.73-.16,1.17,1.14a9.83,9.83,0,0,1-1.13,2,12.84,12.84,0,0,1-6.18,4.57q-4.08,1.27-8.78,2.93.42,6.42.58,14.46.21,12.08,0,25.3,0,3.92,0,7.85t-.31,7.81a6.58,6.58,0,0,1-1.53,3.66,10.57,10.57,0,0,1-3,2.64,5.62,5.62,0,0,1-2.78.58c-1-.06-1.47-.72-1.55-2a68.79,68.79,0,0,1-.12-7.87c.11-2.64.2-5.27.28-7.91q.09-5.94.13-11.91t0-12q-.09-4.2-.19-8.47c-.07-2.84-.18-5.68-.35-8.51-1.81.83-3.76,1.84-5.85,3-1.15.69-2.32,1.4-3.5,2.13S64.54,42.1,63.39,42.89Zm2.3-6c1.73-1.18,3.35-2.26,4.87-3.22q3.12-1.93,5.31-3.13c-.05-.41-.1-.82-.14-1.24s-.08-.82-.11-1.23q-.24-2.1-.8-6c-.37-2.62-.67-3.95-.89-4s-.69.76-1.34,2.3-1,2.52-1.21,2.93q-1.44,3.42-2.88,6.8C67.53,32.33,66.6,34.6,65.69,36.88Z"/><path class="cls-2" d="M103.55,39.68c-.27,1.34-.55,2.68-.82,4s-.54,2.67-.79,4q7-8,18.13-19T139,11c1.09-1,1.64-1.14,1.64-.54a7.44,7.44,0,0,1-.78,2.68,34.14,34.14,0,0,1-1.91,3.67,15.86,15.86,0,0,1-1.67,2.43q-12.9,12.32-22.48,21.94t-9.5,10.74q0,1.11,6.78,4.63a89.63,89.63,0,0,1,12,7.36q4.81,3.59,9.7,6.8t10,6.42q1.94,1.25-1,6c-2,3.17-3.64,4.35-4.93,3.52q-5.24-3.29-10.24-6.88t-10-7.25q-3.7-2.72-8.45-6t-8.24-6Q99,66.91,98.71,73.28A87,87,0,0,0,99.1,86a4.72,4.72,0,0,1-1.48,3.49c-1.1,1.25-1.86,2.06-2.27,2.45a25.84,25.84,0,0,1-2.41,1.75c-1.14.75-1.75.65-1.83-.31a107.31,107.31,0,0,1,.27-24.93Q93,55.8,95.47,43.76q1.13-5.61,2.44-11.19t2.92-11.1q1-3.46,2.43-7.46a19.46,19.46,0,0,1,3.34-6.18A8.62,8.62,0,0,1,111.24,5c1.85-.43,2.34.66,1.46,3.3q-2.22,6.43-4.88,15T103.55,39.68Z"/><path class="cls-2" d="M137.83,62.09c-.35.39-.73.77-1.13,1.16s-.79.77-1.17,1.15c-.88.88-1.38.79-1.49-.29a9.48,9.48,0,0,1,0-2.3,13.86,13.86,0,0,1,3.59-8q0-13.26.82-25.42l-.95.95-.94.94a30.23,30.23,0,0,1-2.62,2.45A4.5,4.5,0,0,1,130.62,34c-.74,0-.81-.49-.22-1.38s.95-1.42,1.09-1.59a89.9,89.9,0,0,1,18.44-15.67A114,114,0,0,1,171.71,4.53q1.6-.57,2.28.39a2.27,2.27,0,0,1,.06,2.37,9.85,9.85,0,0,1-2.51,3.3A7.38,7.38,0,0,1,168,12.52,44.69,44.69,0,0,0,157,16a68.19,68.19,0,0,0-10.76,6q-.87,12.62-.53,24.32a79.59,79.59,0,0,1,10.07-6.95A50.88,50.88,0,0,1,167,34.61c1.32-.38,1.63,1.17.94,4.68s-1.74,5.5-3.17,6a72.67,72.67,0,0,0-18.62,9.89q.45,7.76,1.64,16.69c.2,1.54.4,3.08.6,4.64A22.31,22.31,0,0,0,149.45,81a13,13,0,0,0,1.18,2.53,2.34,2.34,0,0,0,2.29,1.3,10.09,10.09,0,0,0,5.13-1.77q2.49-1.65,4.63-3c2-1.29,4.08-2.71,6.14-4.24s4.07-3,6-4.54,3.71-2.91,5.54-4.53a27.11,27.11,0,0,1,5.91-4,7.72,7.72,0,0,1,2.41-.68,1.82,1.82,0,0,1,2,1.22,3.13,3.13,0,0,1,0,2.33,15.49,15.49,0,0,1-1,2.12A20.47,20.47,0,0,1,183.94,74q-3.78,2.76-7,5-3.54,2.51-7.21,4.88t-7.38,4.6a74.45,74.45,0,0,1-10.84,5.21q-6.63,2.66-9.8-3.9a18,18,0,0,1-1.65-5.43c-.28-1.93-.52-3.82-.74-5.69q-.49-4.12-.91-8.24C138.14,67.67,137.94,64.9,137.83,62.09Z"/><path class="cls-2" d="M231.22,94q-7.5-.75-11-10.2a69,69,0,0,1-4-20.83,92.21,92.21,0,0,1,1.31-21.28q1.86-9.91,5.15-11.52a2.44,2.44,0,0,1,3.1.52,2,2,0,0,1,.45,2.7Q224,36.8,223.08,44.17a80.37,80.37,0,0,0-.33,15.25,64.5,64.5,0,0,0,2.59,14.48q2,6.61,5.67,8.43,5.73,2.92,10.67-1.69a42.14,42.14,0,0,0,8.7-12.12,91.4,91.4,0,0,0,6.09-15.63,97.14,97.14,0,0,0,2.93-12.31,45.79,45.79,0,0,0-.54-16.68q-1.77-7.42-13.26-6.1A25.78,25.78,0,0,0,235,21.38a56.82,56.82,0,0,0-9,6.76,2.47,2.47,0,0,1-2.45.85c-.81-.24-1.31-.94-1.5-2.13a8.4,8.4,0,0,1,2.47-7.58,58.31,58.31,0,0,1,8.51-7.09,31.1,31.1,0,0,1,10.12-4.53,35.72,35.72,0,0,1,9.29-.9,13.29,13.29,0,0,1,8.71,2.92,14.45,14.45,0,0,1,4.37,7.09A37.59,37.59,0,0,1,267,26.1a58.68,58.68,0,0,1-.51,9.75q-.66,4.82-1.41,8.2-1.11,4.81-3.79,13.51a105.44,105.44,0,0,1-6.94,17,57.38,57.38,0,0,1-10.05,14.24Q238.47,94.73,231.22,94Z"/><path class="cls-2" d="M264.19,20.93a5.32,5.32,0,0,1,1.38-3.23A28.62,28.62,0,0,1,268.06,15q.12-.12,2.19-1.53c1.37-.93,2-.9,2,.09q-.36,8.28-.43,16.13T272,45.82c0,.55.06,2.5.2,5.85s.31,6.94.52,10.77.43,7.32.68,10.45.49,4.74.74,4.82.91-.33,2-1.4,2.26-2.33,3.54-3.79,2.49-2.89,3.63-4.31a29.49,29.49,0,0,0,2.24-3q3.09-5.2,5.71-10.12a73.31,73.31,0,0,0,4.59-10.69q1.69-5,3.09-10.1T301.56,24c.5-2.09,1-4.2,1.42-6.35s1-4.24,1.67-6.3a9.5,9.5,0,0,1,5.44-5.85q2.71-1.25,2.64,1.28a328.56,328.56,0,0,1-4.12,40.13,178.37,178.37,0,0,0-2.06,40.17,4.82,4.82,0,0,1-1.26,3.12,12.83,12.83,0,0,1-3,2.8,5.63,5.63,0,0,1-3,1.11c-.95,0-1.44-.61-1.47-1.87s.11-4.19.48-9,.79-9.92,1.25-15.24.89-10.12,1.26-14.36.54-6.38.51-6.41-1.26,2.68-3.62,8a89.15,89.15,0,0,1-9.4,16.18A52.72,52.72,0,0,1,278.18,82a68.23,68.23,0,0,1-8.68,6,4.92,4.92,0,0,1-1.69.44c-.77.09-1.23-.63-1.4-2.17q-1-8.44-1.62-16.15t-.85-16.23q-.21-8.25-.16-16.49T264.19,20.93Z"/><path class="cls-2" d="M336,86.08a4.55,4.55,0,0,1-1.34,3.29c-1,1.13-1.8,2-2.45,2.64-.2.19-.93.72-2.21,1.59s-2,.81-2-.15a105.82,105.82,0,0,1,.25-25q1.61-12.63,4.12-24.7,2.34-11.37,5.77-23.61a113,113,0,0,0-27.9,11.41c-.88.52-1.36.06-1.44-1.4a20.47,20.47,0,0,1,0-2.88c.14-.94.36-2.12.68-3.55a4.36,4.36,0,0,1,1.91-3,100.58,100.58,0,0,1,15.48-7.46A132.64,132.64,0,0,1,343.2,8.24,17,17,0,0,1,345.5,6a3.55,3.55,0,0,1,3-.88c.77.16,1.11.74,1,1.73q6-1.2,12.09-2t12.22-1.34q1.81-.12,1.2,5.38c-.42,3.67-1.53,5.58-3.34,5.75q-6.56.57-13,1.46t-12.88,2.25q-2.92,10-5.27,21.38-2.36,11.25-4,23A93.77,93.77,0,0,0,336,86.08Z"/><path class="cls-2" d="M402.88,94q-7.5-.75-11-10.2a68.64,68.64,0,0,1-4-20.83,91.64,91.64,0,0,1,1.32-21.28q1.84-9.91,5.15-11.52a2.43,2.43,0,0,1,3.09.52,2,2,0,0,1,.45,2.7q-2.22,3.38-3.11,10.75a80.37,80.37,0,0,0-.33,15.25A64.49,64.49,0,0,0,397,73.9q2,6.61,5.66,8.43,5.73,2.92,10.67-1.69A42.14,42.14,0,0,0,422,68.52a92.27,92.27,0,0,0,6.1-15.63,96.71,96.71,0,0,0,2.92-12.31,45.58,45.58,0,0,0-.53-16.68q-1.78-7.42-13.27-6.1a25.78,25.78,0,0,0-10.59,3.58,56.29,56.29,0,0,0-9,6.76,2.5,2.5,0,0,1-2.46.85c-.81-.24-1.31-.94-1.5-2.13a8.43,8.43,0,0,1,2.47-7.58,58.31,58.31,0,0,1,8.51-7.09,31.1,31.1,0,0,1,10.12-4.53,35.76,35.76,0,0,1,9.29-.9,13.29,13.29,0,0,1,8.71,2.92,14.45,14.45,0,0,1,4.37,7.09,37.13,37.13,0,0,1,1.42,9.33,58.68,58.68,0,0,1-.51,9.75q-.66,4.82-1.4,8.2-1.11,4.81-3.79,13.51a105.49,105.49,0,0,1-6.95,17,57.38,57.38,0,0,1-10.05,14.24Q410.13,94.73,402.88,94Z"/><path class="cls-2" d="M447,39.68c-.27,1.34-.55,2.68-.82,4s-.54,2.67-.78,4q7-8,18.13-19T482.39,11Q484,9.56,484,10.46a7.3,7.3,0,0,1-.79,2.68,34.14,34.14,0,0,1-1.91,3.67,15.15,15.15,0,0,1-1.67,2.43q-12.9,12.32-22.48,21.94t-9.5,10.74q0,1.11,6.78,4.63a89.63,89.63,0,0,1,12,7.36q4.83,3.59,9.71,6.8t10,6.42q1.94,1.25-1.05,6c-2,3.17-3.64,4.35-4.93,3.52q-5.24-3.29-10.24-6.88T460,72.52q-3.71-2.72-8.44-6t-8.25-6q-.86,6.34-1.13,12.71A87,87,0,0,0,442.54,86a4.72,4.72,0,0,1-1.48,3.49c-1.1,1.25-1.85,2.06-2.27,2.45a24.52,24.52,0,0,1-2.41,1.75c-1.14.75-1.75.65-1.83-.31a107.31,107.31,0,0,1,.27-24.93q1.57-12.64,4.1-24.68,1.11-5.61,2.43-11.19t2.92-11.1q1-3.46,2.43-7.46A19.66,19.66,0,0,1,450,7.83,8.62,8.62,0,0,1,454.68,5c1.85-.43,2.34.66,1.46,3.3q-2.22,6.43-4.88,15T447,39.68Z"/><path class="cls-2" d="M494,30.24q-1.25,7.17-3.19,18.46a73,73,0,0,0-.73,21.39,3.94,3.94,0,0,1-1.52,3c-1.1,1.08-1.85,1.79-2.27,2.12a20,20,0,0,1-2.39,1.54c-1.15.68-1.77.59-1.85-.26a107.31,107.31,0,0,1,0-23.8,166.89,166.89,0,0,1,3.34-21.61,127.12,127.12,0,0,1,4.86-15.87,44.48,44.48,0,0,1,7.29-12.77A8.85,8.85,0,0,1,499.75.72,4.23,4.23,0,0,1,502.59,0c.63.11,1,.43,1,1a3,3,0,0,1-.21,1.38q-2.72,6.84-5.44,13.76A70.34,70.34,0,0,0,494,30.24ZM489.77,82a3.93,3.93,0,0,1,3.53,1.79,5,5,0,0,1,.47,4.26,8.55,8.55,0,0,1-2.9,4.33,7.07,7.07,0,0,1-4.52,1.77,3.94,3.94,0,0,1-3.52-1.77,5.09,5.09,0,0,1-.47-4.33,8.37,8.37,0,0,1,2.88-4.26A7.06,7.06,0,0,1,489.77,82Z"/></g></g></svg>