<svg xmlns="http://www.w3.org/2000/svg" viewBox="0 0 24.3 30.23"><defs><style>.cls-1{fill:#fff;}</style></defs><g id="Layer_2" data-name="Layer 2"><g id="レイヤー_1" data-name="レイヤー 1"><polygon class="cls-1" points="8.06 24.39 7.36 22.9 6.89 22.9 6.89 25.52 7.38 25.52 7.38 24.03 7.89 25.07 8.24 25.07 8.73 24.04 8.73 25.52 9.22 25.52 9.22 22.9 8.75 22.9 8.06 24.39"/><polygon class="cls-1" points="9.97 25.52 11.68 25.52 11.68 25.07 10.46 25.07 10.46 24.43 11.5 24.43 11.5 23.98 10.46 23.98 10.46 23.35 11.68 23.35 11.68 22.9 9.97 22.9 9.97 25.52"/><polygon class="cls-1" points="13.82 24.54 12.74 22.9 12.31 22.9 12.31 25.52 12.8 25.52 12.8 23.89 13.88 25.52 14.31 25.52 14.31 22.9 13.82 22.9 13.82 24.54"/><path class="cls-1" d="M16.45,24.6a.49.49,0,0,1-.13.36.51.51,0,0,1-.68,0,.49.49,0,0,1-.12-.36V22.9H15v1.72a.92.92,0,0,0,.08.38.84.84,0,0,0,.2.29,1,1,0,0,0,.3.19,1.07,1.07,0,0,0,.76,0,1.17,1.17,0,0,0,.3-.19.84.84,0,0,0,.2-.29.92.92,0,0,0,.08-.38V22.9h-.49Z"/><path class="cls-1" d="M6.93,14.06c1,1.18,1.5,1.27,2.23,1.28A1.7,1.7,0,0,1,10.8,16l.34.41.87-1-.19-.23a1.69,1.69,0,0,1-.39-1.73c.11-.72.1-1.24-.89-2.41L9.1,9.31c-.54-.64-1.41,0-.85.7l1.52,1.81a.33.33,0,0,1,0,.45l-.06.05a.32.32,0,0,1-.45-.06L7.71,10.45a.53.53,0,0,0-.83-.11.54.54,0,0,0,0,.84L8.38,13a.32.32,0,0,1,0,.45l-.06.05a.32.32,0,0,1-.45-.06l-1.52-1.8c-.56-.66-1.38.07-.84.71Z"/><polygon class="cls-1" points="16.15 20.29 13.59 17.26 12.72 18.29 15.14 21.15 16.15 20.29"/><path class="cls-1" d="M8.57,20.31h0l1,.85,3.77-4.47c1.35-1.55,1.37.31,3-1.74a13.43,13.43,0,0,0,1.68-3.25c.55-1.32-.6-1.9-1.29-1.08l-3.84,4.55L8.58,20.29Z"/><path class="cls-1" d="M3,4.31a1.28,1.28,0,0,1-.92-.38A1.34,1.34,0,0,1,1.69,3a1.34,1.34,0,0,1,.39-.92A1.28,1.28,0,0,1,3,1.7H23.45V0H3A3,3,0,0,0,0,3V27.22a3,3,0,0,0,3,3H24.3V4.31ZM22.6,28.53H3a1.31,1.31,0,0,1-1.31-1.31V5.71A3,3,0,0,0,3,6H22.6Z"/></g></g></svg>