<svg xmlns="http://www.w3.org/2000/svg" width="20.003" height="20" viewBox="0 0 20.003 20"><g transform="translate(-276.621 -191.118)"><path d="M290.776,211.118H282.47a5.855,5.855,0,0,1-5.849-5.845v-8.306a5.858,5.858,0,0,1,5.849-5.849h8.306a5.858,5.858,0,0,1,5.848,5.849v8.306A5.854,5.854,0,0,1,290.776,211.118Zm-8.306-18.134a3.988,3.988,0,0,0-3.982,3.983v8.306a3.988,3.988,0,0,0,3.982,3.983h8.306a3.989,3.989,0,0,0,3.983-3.983v-8.306a3.988,3.988,0,0,0-3.983-3.983Z" fill="#fff"/><path d="M293.215,195.786a1.247,1.247,0,1,1-1.246-1.248A1.248,1.248,0,0,1,293.215,195.786Z" fill="#fff"/><path d="M286.625,206.291a5.171,5.171,0,1,1,5.169-5.169A5.177,5.177,0,0,1,286.625,206.291Zm0-8.477a3.3,3.3,0,1,0,3.3,3.308A3.312,3.312,0,0,0,286.625,197.814Z" fill="#fff"/></g></svg>