<svg xmlns="http://www.w3.org/2000/svg" width="76.733" height="14.742" viewBox="0 0 76.733 14.742"><g transform="translate(-176.099 -241.884)"><path d="M176.1,256.464v-14.58h5.993v1.836h-3.329v4.248h2.717v1.854h-2.717v6.642Z" fill="#fff"/><path d="M187.187,256.626a1.986,1.986,0,0,1-1.207-.369,2.445,2.445,0,0,1-.774-.936,2.71,2.71,0,0,1-.269-1.179,3.232,3.232,0,0,1,1.313-2.754,6.672,6.672,0,0,1,1.351-.783q.755-.333,1.529-.6v-.9a3.828,3.828,0,0,0-.063-.756.865.865,0,0,0-.234-.468.75.75,0,0,0-.531-.162.792.792,0,0,0-.494.144.779.779,0,0,0-.271.4,2.481,2.481,0,0,0-.1.6l-.036.63-2.322-.09a3.843,3.843,0,0,1,.891-2.655,3.42,3.42,0,0,1,2.548-.855,2.781,2.781,0,0,1,2.276.864,3.572,3.572,0,0,1,.711,2.34v4.806q0,.576.027,1.044t.072.846q.045.378.082.666h-2.2q-.054-.36-.135-.819t-.117-.675a2.665,2.665,0,0,1-.684,1.143A1.83,1.83,0,0,1,187.187,256.626Zm.9-1.818a.882.882,0,0,0,.441-.117,1.7,1.7,0,0,0,.369-.279,1.448,1.448,0,0,0,.234-.288v-2.9q-.4.234-.747.468a3.465,3.465,0,0,0-.612.513,2.017,2.017,0,0,0-.4.6,1.955,1.955,0,0,0-.135.756,1.6,1.6,0,0,0,.225.909A.71.71,0,0,0,188.086,254.808Z" fill="#fff"/><path d="M198.238,256.626a3.594,3.594,0,0,1-1.935-.459,2.632,2.632,0,0,1-1.062-1.314,5.572,5.572,0,0,1-.333-2.025V249.7a5.612,5.612,0,0,1,.333-2.052,2.571,2.571,0,0,1,1.072-1.3,3.654,3.654,0,0,1,1.925-.45,4.131,4.131,0,0,1,1.827.351,2.153,2.153,0,0,1,1.036,1.062,4.343,4.343,0,0,1,.323,1.791v.864h-2.3v-.918a3.576,3.576,0,0,0-.081-.855.741.741,0,0,0-.279-.45.91.91,0,0,0-.522-.135.77.77,0,0,0-.522.171.965.965,0,0,0-.278.549,5.151,5.151,0,0,0-.082,1.044v3.816a2.886,2.886,0,0,0,.216,1.359.744.744,0,0,0,.684.351.717.717,0,0,0,.8-.639,4.059,4.059,0,0,0,.062-.765v-1.116h2.3v.99a4.314,4.314,0,0,1-.333,1.782,2.258,2.258,0,0,1-1.044,1.107A3.912,3.912,0,0,1,198.238,256.626Z" fill="#fff"/><path d="M207.976,256.626a3.678,3.678,0,0,1-1.908-.441,2.616,2.616,0,0,1-1.089-1.3,5.422,5.422,0,0,1-.351-2.061V249.7a5.462,5.462,0,0,1,.351-2.088,2.56,2.56,0,0,1,1.1-1.278,3.751,3.751,0,0,1,1.9-.432,3.43,3.43,0,0,1,1.935.468,2.552,2.552,0,0,1,.99,1.359,6.912,6.912,0,0,1,.3,2.169v1.476h-4.14v2.052a2.892,2.892,0,0,0,.1.828.826.826,0,0,0,.315.468.919.919,0,0,0,.522.144.831.831,0,0,0,.522-.153.871.871,0,0,0,.288-.45,2.62,2.62,0,0,0,.09-.747v-.864h2.286v.7a3.425,3.425,0,0,1-.792,2.43A3.155,3.155,0,0,1,207.976,256.626Zm-.918-6.462h1.836v-.99a3.448,3.448,0,0,0-.09-.873.763.763,0,0,0-.846-.639.8.8,0,0,0-.522.162.97.97,0,0,0-.289.54,5.02,5.02,0,0,0-.089,1.08Z" fill="#fff"/><path d="M219.136,256.626a2.252,2.252,0,0,1-1.08-.27,4.587,4.587,0,0,1-.936-.666v.774h-2.448v-14.58h2.448v4.968a3.892,3.892,0,0,1,.981-.693,2.556,2.556,0,0,1,1.143-.261,1.924,1.924,0,0,1,1.152.324,2.187,2.187,0,0,1,.7.855,4.229,4.229,0,0,1,.351,1.134,7.168,7.168,0,0,1,.1,1.161V252.9a6.768,6.768,0,0,1-.243,1.872,2.929,2.929,0,0,1-.774,1.35A1.943,1.943,0,0,1,219.136,256.626Zm-.936-1.71a.674.674,0,0,0,.585-.261,1.562,1.562,0,0,0,.252-.7,6.832,6.832,0,0,0,.063-.963v-3.726a4.8,4.8,0,0,0-.072-.873,1.382,1.382,0,0,0-.261-.621.707.707,0,0,0-.585-.234,1.233,1.233,0,0,0-.558.135,4.049,4.049,0,0,0-.5.3v6.57a2.428,2.428,0,0,0,.513.27A1.559,1.559,0,0,0,218.2,254.916Z" fill="#fff"/><path d="M228.189,256.626a3.742,3.742,0,0,1-1.872-.423,2.639,2.639,0,0,1-1.106-1.233,4.712,4.712,0,0,1-.369-1.962v-3.492a4.712,4.712,0,0,1,.369-1.962,2.639,2.639,0,0,1,1.106-1.233,3.731,3.731,0,0,1,1.872-.423,3.778,3.778,0,0,1,1.881.423,2.636,2.636,0,0,1,1.117,1.233,4.712,4.712,0,0,1,.369,1.962v3.492a4.712,4.712,0,0,1-.369,1.962,2.636,2.636,0,0,1-1.117,1.233A3.788,3.788,0,0,1,228.189,256.626Zm.019-1.692a.755.755,0,0,0,.611-.234,1.2,1.2,0,0,0,.252-.639,6.762,6.762,0,0,0,.055-.891v-3.816a6.555,6.555,0,0,0-.055-.882,1.242,1.242,0,0,0-.252-.639.891.891,0,0,0-1.223,0,1.32,1.32,0,0,0-.261.639,5.633,5.633,0,0,0-.064.882v3.816a5.81,5.81,0,0,0,.064.891,1.273,1.273,0,0,0,.261.639A.758.758,0,0,0,228.208,254.934Z" fill="#fff"/><path d="M238.18,256.626a3.736,3.736,0,0,1-1.872-.423,2.638,2.638,0,0,1-1.108-1.233,4.712,4.712,0,0,1-.369-1.962v-3.492a4.712,4.712,0,0,1,.369-1.962,2.638,2.638,0,0,1,1.108-1.233,3.726,3.726,0,0,1,1.872-.423,3.778,3.778,0,0,1,1.881.423,2.628,2.628,0,0,1,1.116,1.233,4.728,4.728,0,0,1,.369,1.962v3.492a4.728,4.728,0,0,1-.369,1.962,2.628,2.628,0,0,1-1.116,1.233A3.788,3.788,0,0,1,238.18,256.626Zm.017-1.692a.758.758,0,0,0,.613-.234,1.234,1.234,0,0,0,.252-.639,6.777,6.777,0,0,0,.053-.891v-3.816a6.572,6.572,0,0,0-.053-.882,1.278,1.278,0,0,0-.252-.639.892.892,0,0,0-1.224,0,1.311,1.311,0,0,0-.262.639,5.647,5.647,0,0,0-.062.882v3.816a5.822,5.822,0,0,0,.062.891,1.264,1.264,0,0,0,.262.639A.755.755,0,0,0,238.2,254.934Z" fill="#fff"/><path d="M245.038,256.464v-14.58h2.447v8.37l2.683-4.194h2.664l-2.61,4.176,2.555,6.228H250.2l-1.891-5.13-.828,1.152v3.978Z" fill="#fff"/></g></svg>