<svg xmlns="http://www.w3.org/2000/svg" width="62.19" height="14.94" viewBox="0 0 62.19 14.94"><g transform="translate(-175.36 -145.722)"><path d="M175.36,160.464l2.916-14.58h2.844l2.916,14.58H181.57l-.576-3.366h-2.538l-.594,3.366Zm3.367-5.058h1.979l-.99-6.12Z" fill="#fff"/><path d="M191.057,160.662a4.35,4.35,0,0,1-2.511-.63,3.286,3.286,0,0,1-1.27-1.719,8,8,0,0,1-.36-2.511v-5.2a8.346,8.346,0,0,1,.36-2.592,3.109,3.109,0,0,1,1.27-1.692,4.554,4.554,0,0,1,2.511-.594,4.608,4.608,0,0,1,2.367.513,2.83,2.83,0,0,1,1.215,1.467,6.276,6.276,0,0,1,.359,2.214v1.224h-2.556v-1.26a9.256,9.256,0,0,0-.062-1.116,1.386,1.386,0,0,0-.343-.8,1.283,1.283,0,0,0-.963-.3,1.366,1.366,0,0,0-1,.315,1.511,1.511,0,0,0-.4.846,7.093,7.093,0,0,0-.091,1.2v6.336a5.607,5.607,0,0,0,.126,1.3,1.354,1.354,0,0,0,.459.774,1.439,1.439,0,0,0,.909.261,1.214,1.214,0,0,0,.946-.315,1.555,1.555,0,0,0,.35-.837,8.617,8.617,0,0,0,.072-1.17v-1.314H195v1.17a7.075,7.075,0,0,1-.342,2.3,2.978,2.978,0,0,1-1.2,1.566A4.322,4.322,0,0,1,191.057,160.662Z" fill="#fff"/><path d="M202.576,160.662a4.354,4.354,0,0,1-2.511-.63,3.278,3.278,0,0,1-1.268-1.719,8,8,0,0,1-.36-2.511v-5.2a8.346,8.346,0,0,1,.36-2.592,3.1,3.1,0,0,1,1.268-1.692,4.559,4.559,0,0,1,2.511-.594,4.605,4.605,0,0,1,2.367.513,2.816,2.816,0,0,1,1.215,1.467,6.252,6.252,0,0,1,.361,2.214v1.224h-2.556v-1.26a9.035,9.035,0,0,0-.064-1.116,1.391,1.391,0,0,0-.341-.8,1.286,1.286,0,0,0-.963-.3,1.366,1.366,0,0,0-1,.315,1.519,1.519,0,0,0-.406.846,7.213,7.213,0,0,0-.089,1.2v6.336a5.607,5.607,0,0,0,.126,1.3,1.349,1.349,0,0,0,.459.774,1.433,1.433,0,0,0,.909.261,1.209,1.209,0,0,0,.944-.315,1.542,1.542,0,0,0,.352-.837,8.783,8.783,0,0,0,.072-1.17v-1.314h2.556v1.17a7.1,7.1,0,0,1-.342,2.3,2.99,2.99,0,0,1-1.2,1.566A4.326,4.326,0,0,1,202.576,160.662Z" fill="#fff"/><path d="M210.172,160.464v-14.58h6.12v1.872h-3.456v4.194h2.718V153.8h-2.718v4.824h3.492v1.836Z" fill="#fff"/><path d="M223.349,160.662a4.314,4.314,0,0,1-2.2-.513,3.231,3.231,0,0,1-1.332-1.5,6.493,6.493,0,0,1-.5-2.43l2.287-.45a6.939,6.939,0,0,0,.207,1.494,2.162,2.162,0,0,0,.521,1,1.254,1.254,0,0,0,.928.351,1.042,1.042,0,0,0,.918-.387,1.682,1.682,0,0,0,.269-.981,2.653,2.653,0,0,0-.431-1.566,6.748,6.748,0,0,0-1.153-1.224l-1.836-1.62a5.555,5.555,0,0,1-1.233-1.485,4.092,4.092,0,0,1-.459-2.025,3.453,3.453,0,0,1,1.009-2.664,3.889,3.889,0,0,1,2.754-.936,4.09,4.09,0,0,1,1.71.315,2.726,2.726,0,0,1,1.089.873,3.956,3.956,0,0,1,.6,1.269,7.419,7.419,0,0,1,.252,1.5l-2.268.4a7.734,7.734,0,0,0-.153-1.224,1.7,1.7,0,0,0-.414-.846,1.16,1.16,0,0,0-.873-.306,1.1,1.1,0,0,0-.908.387,1.471,1.471,0,0,0-.316.963,2.212,2.212,0,0,0,.306,1.215,4.736,4.736,0,0,0,.883.981l1.817,1.6a7.509,7.509,0,0,1,1.539,1.773A4.526,4.526,0,0,1,227,157.08a3.684,3.684,0,0,1-.459,1.854,3.286,3.286,0,0,1-1.277,1.269A3.862,3.862,0,0,1,223.349,160.662Z" fill="#fff"/><path d="M233.9,160.662a4.307,4.307,0,0,1-2.2-.513,3.226,3.226,0,0,1-1.332-1.5,6.434,6.434,0,0,1-.5-2.43l2.286-.45a7.13,7.13,0,0,0,.207,1.494,2.172,2.172,0,0,0,.523,1,1.252,1.252,0,0,0,.927.351,1.041,1.041,0,0,0,.918-.387,1.683,1.683,0,0,0,.27-.981,2.653,2.653,0,0,0-.432-1.566,6.775,6.775,0,0,0-1.152-1.224l-1.836-1.62a5.5,5.5,0,0,1-1.233-1.485,4.092,4.092,0,0,1-.459-2.025,3.456,3.456,0,0,1,1.008-2.664,3.887,3.887,0,0,1,2.754-.936,4.09,4.09,0,0,1,1.71.315,2.709,2.709,0,0,1,1.088.873,3.939,3.939,0,0,1,.6,1.269,7.491,7.491,0,0,1,.252,1.5l-2.269.4a7.627,7.627,0,0,0-.152-1.224,1.7,1.7,0,0,0-.414-.846,1.163,1.163,0,0,0-.873-.306,1.1,1.1,0,0,0-.909.387,1.476,1.476,0,0,0-.315.963,2.212,2.212,0,0,0,.306,1.215,4.758,4.758,0,0,0,.882.981l1.818,1.6a7.554,7.554,0,0,1,1.539,1.773,4.526,4.526,0,0,1,.639,2.457,3.7,3.7,0,0,1-.459,1.854,3.3,3.3,0,0,1-1.278,1.269A3.857,3.857,0,0,1,233.9,160.662Z" fill="#fff"/></g></svg>