<svg xmlns="http://www.w3.org/2000/svg" width="43.236" height="14.778" viewBox="0 0 43.236 14.778"><g transform="translate(-176.063 -97.884)"><path d="M176.063,112.464l.251-14.58h2.754l2.071,10.1,2.159-10.1h2.664l.27,14.58h-1.98l-.216-10.134-2.07,10.134h-1.6l-2.106-10.17-.2,10.17Z" fill="#fff"/><path d="M190.084,112.464V97.884h6.12v1.872h-3.456v4.194h2.718V105.8h-2.718v4.824h3.492v1.836Z" fill="#fff"/><path d="M199.589,112.464V97.884h1.853l3.546,8.316V97.884h2.2v14.58h-1.764l-3.565-8.712v8.712Z" fill="#fff"/><path d="M215.194,112.662a4.544,4.544,0,0,1-2.519-.594,3.028,3.028,0,0,1-1.242-1.692,8.863,8.863,0,0,1-.342-2.628V97.884h2.592v10.17a8.73,8.73,0,0,0,.089,1.287,1.819,1.819,0,0,0,.423.972,1.561,1.561,0,0,0,2.016,0,1.942,1.942,0,0,0,.414-.972,7.944,7.944,0,0,0,.1-1.287V97.884H219.3v9.864a8.861,8.861,0,0,1-.343,2.628,3.049,3.049,0,0,1-1.232,1.692A4.548,4.548,0,0,1,215.194,112.662Z" fill="#fff"/></g></svg>