<svg xmlns="http://www.w3.org/2000/svg" width="73.997" height="14.94" viewBox="0 0 73.997 14.94"><g transform="translate(-175.882 -49.722)"><path d="M180.022,64.662a4.348,4.348,0,0,1-2.51-.63,3.281,3.281,0,0,1-1.27-1.719,8,8,0,0,1-.36-2.511V54.6a8.346,8.346,0,0,1,.36-2.592,3.1,3.1,0,0,1,1.27-1.692,4.553,4.553,0,0,1,2.51-.594,4.612,4.612,0,0,1,2.368.513A2.824,2.824,0,0,1,183.6,51.7a6.253,6.253,0,0,1,.36,2.214V55.14h-2.556V53.88a9.256,9.256,0,0,0-.062-1.116,1.392,1.392,0,0,0-.343-.8,1.284,1.284,0,0,0-.963-.3,1.366,1.366,0,0,0-1,.315,1.511,1.511,0,0,0-.4.846,7.1,7.1,0,0,0-.091,1.2V60.36a5.607,5.607,0,0,0,.126,1.305,1.354,1.354,0,0,0,.459.774,1.439,1.439,0,0,0,.909.261,1.211,1.211,0,0,0,.945-.315,1.549,1.549,0,0,0,.351-.837,8.617,8.617,0,0,0,.072-1.17V59.064h2.556v1.17a7.075,7.075,0,0,1-.342,2.295,2.978,2.978,0,0,1-1.2,1.566A4.326,4.326,0,0,1,180.022,64.662Z" fill="#fff"/><path d="M191.578,64.662a4.608,4.608,0,0,1-2.467-.576A3.187,3.187,0,0,1,187.8,62.43a7.4,7.4,0,0,1-.4-2.556V54.42a7.173,7.173,0,0,1,.4-2.529,3.1,3.1,0,0,1,1.313-1.611,5.788,5.788,0,0,1,4.959,0,3.156,3.156,0,0,1,1.315,1.611,7.074,7.074,0,0,1,.4,2.529v5.472a7.166,7.166,0,0,1-.4,2.529,3.289,3.289,0,0,1-1.315,1.656A4.569,4.569,0,0,1,191.578,64.662Zm0-1.962a1.421,1.421,0,0,0,.981-.288,1.442,1.442,0,0,0,.422-.792,5.173,5.173,0,0,0,.109-1.1V53.808a5.016,5.016,0,0,0-.109-1.1,1.383,1.383,0,0,0-.422-.765,1.453,1.453,0,0,0-.981-.279,1.424,1.424,0,0,0-.954.279,1.373,1.373,0,0,0-.433.765,5.148,5.148,0,0,0-.107,1.1v6.714a5.624,5.624,0,0,0,.1,1.1,1.382,1.382,0,0,0,.422.792A1.428,1.428,0,0,0,191.578,62.7Z" fill="#fff"/><path d="M199.552,64.464V49.884h1.854l3.546,8.316V49.884h2.2v14.58h-1.763l-3.564-8.712v8.712Z" fill="#fff"/><path d="M215.086,64.662a4.354,4.354,0,0,1-2.511-.63,3.285,3.285,0,0,1-1.269-1.719,7.968,7.968,0,0,1-.361-2.511V54.6a8.315,8.315,0,0,1,.361-2.592,3.108,3.108,0,0,1,1.269-1.692,4.559,4.559,0,0,1,2.511-.594,4.605,4.605,0,0,1,2.367.513,2.826,2.826,0,0,1,1.215,1.467,6.276,6.276,0,0,1,.359,2.214V55.14h-2.555V53.88a9.245,9.245,0,0,0-.063-1.116,1.386,1.386,0,0,0-.343-.8,1.28,1.28,0,0,0-.962-.3,1.367,1.367,0,0,0-1,.315,1.524,1.524,0,0,0-.4.846,7.2,7.2,0,0,0-.091,1.2V60.36a5.607,5.607,0,0,0,.126,1.305,1.36,1.36,0,0,0,.459.774,1.442,1.442,0,0,0,.91.261,1.213,1.213,0,0,0,.945-.315,1.548,1.548,0,0,0,.35-.837,8.607,8.607,0,0,0,.073-1.17V59.064h2.555v1.17a7.1,7.1,0,0,1-.341,2.295,2.98,2.98,0,0,1-1.2,1.566A4.322,4.322,0,0,1,215.086,64.662Z" fill="#fff"/><path d="M222.682,64.464V49.884h6.12v1.872h-3.456V55.95h2.717V57.8h-2.717v4.824h3.492v1.836Z" fill="#fff"/><path d="M232.186,64.464V49.884h4.284a4.143,4.143,0,0,1,2.133.486,2.888,2.888,0,0,1,1.206,1.413,5.831,5.831,0,0,1,.386,2.241,4.717,4.717,0,0,1-.485,2.3,2.9,2.9,0,0,1-1.359,1.269,4.953,4.953,0,0,1-2.061.4h-1.44v6.48Zm2.664-8.352h1.007a2.5,2.5,0,0,0,1.125-.207,1.109,1.109,0,0,0,.559-.666,4.021,4.021,0,0,0,.152-1.233,5.77,5.77,0,0,0-.117-1.287,1.105,1.105,0,0,0-.5-.729,2.425,2.425,0,0,0-1.215-.234H234.85Z" fill="#fff"/><path d="M244.93,64.464V51.846h-2.323V49.884h7.272v1.962h-2.285V64.464Z" fill="#fff"/></g></svg>