<svg xmlns="http://www.w3.org/2000/svg" width="82.96" height="18" viewBox="0 0 82.96 18"><g transform="translate(-176.17 -193.884)"><path d="M176.17,208.464v-14.58H178.8v14.58Z" fill="#fff"/><path d="M182.686,208.464v-10.4h2.448V199.1a5.278,5.278,0,0,1,1.179-.873,2.793,2.793,0,0,1,1.34-.333,1.554,1.554,0,0,1,1.027.315,1.841,1.841,0,0,1,.557.837,3.457,3.457,0,0,1,.181,1.134v8.28H186.97V200.67a1.469,1.469,0,0,0-.144-.72.587.587,0,0,0-.558-.252,1.27,1.27,0,0,0-.549.144,3.538,3.538,0,0,0-.585.36v8.262Z" fill="#fff"/><path d="M195.844,208.626a3.269,3.269,0,0,1-2.16-.7,3.862,3.862,0,0,1-1.206-2.052l1.818-.7a3.422,3.422,0,0,0,.576,1.3,1.141,1.141,0,0,0,.936.45.88.88,0,0,0,.648-.216.8.8,0,0,0,.216-.594,1.281,1.281,0,0,0-.261-.783,5.689,5.689,0,0,0-.891-.873l-1.26-1.062a6.452,6.452,0,0,1-1.108-1.215,2.712,2.712,0,0,1-.423-1.557,2.521,2.521,0,0,1,1.45-2.385,3.351,3.351,0,0,1,1.5-.333,2.777,2.777,0,0,1,2.025.747,3.511,3.511,0,0,1,.981,1.953l-1.6.684a3.8,3.8,0,0,0-.261-.8,1.779,1.779,0,0,0-.441-.6.932.932,0,0,0-.63-.234.8.8,0,0,0-.6.234.826.826,0,0,0-.224.594,1.015,1.015,0,0,0,.261.63,5.677,5.677,0,0,0,.747.738l1.278,1.152a9.781,9.781,0,0,1,.792.774,3.949,3.949,0,0,1,.63.927,2.641,2.641,0,0,1,.252,1.179,2.673,2.673,0,0,1-.406,1.512,2.544,2.544,0,0,1-1.1.927A3.68,3.68,0,0,1,195.844,208.626Z" fill="#fff"/><path d="M205.023,208.59a3.152,3.152,0,0,1-1.557-.324,1.779,1.779,0,0,1-.8-.936,4.084,4.084,0,0,1-.233-1.458V199.68h-1.044v-1.62h1.044v-3.114H204.9v3.114h1.584v1.62H204.9v5.976a1.037,1.037,0,0,0,.234.765.977.977,0,0,0,.7.225c.132,0,.262-.006.388-.018l.368-.036v1.872l-.711.081A7.75,7.75,0,0,1,205.023,208.59Z" fill="#fff"/><path d="M211.81,208.626a1.981,1.981,0,0,1-1.206-.369,2.438,2.438,0,0,1-.775-.936,2.71,2.71,0,0,1-.269-1.179,3.232,3.232,0,0,1,1.313-2.754,6.7,6.7,0,0,1,1.351-.783q.756-.333,1.529-.6v-.9a3.828,3.828,0,0,0-.063-.756.865.865,0,0,0-.234-.468.75.75,0,0,0-.531-.162.792.792,0,0,0-.494.144.779.779,0,0,0-.271.4,2.436,2.436,0,0,0-.1.6l-.037.63-2.322-.09a3.843,3.843,0,0,1,.891-2.655,3.42,3.42,0,0,1,2.548-.855,2.781,2.781,0,0,1,2.276.864,3.572,3.572,0,0,1,.711,2.34v4.806q0,.576.027,1.044t.073.846q.043.378.081.666h-2.2q-.054-.36-.134-.819t-.118-.675a2.665,2.665,0,0,1-.684,1.143A1.829,1.829,0,0,1,211.81,208.626Zm.9-1.818a.882.882,0,0,0,.441-.117,1.736,1.736,0,0,0,.37-.279,1.474,1.474,0,0,0,.233-.288v-2.9q-.4.234-.747.468a3.42,3.42,0,0,0-.611.513,2,2,0,0,0-.4.6,1.955,1.955,0,0,0-.135.756,1.6,1.6,0,0,0,.225.909A.71.71,0,0,0,212.709,206.808Z" fill="#fff"/><path d="M222.789,211.884a7.292,7.292,0,0,1-1.872-.216,2.744,2.744,0,0,1-1.261-.666,1.582,1.582,0,0,1-.449-1.17,1.81,1.81,0,0,1,.207-.873,2.168,2.168,0,0,1,.566-.675,4.03,4.03,0,0,1,.775-.486,1.8,1.8,0,0,1-.909-.522,1.269,1.269,0,0,1-.316-.864,1.76,1.76,0,0,1,.307-1.044,5.687,5.687,0,0,1,.846-.918,2.781,2.781,0,0,1-.837-1.125,5.551,5.551,0,0,1,.108-3.78,2.669,2.669,0,0,1,1.134-1.233,3.719,3.719,0,0,1,1.827-.414,3.476,3.476,0,0,1,1.386.243,2.231,2.231,0,0,1,.918.729,3.093,3.093,0,0,1,.5-.54,3.269,3.269,0,0,1,.828-.54l.324-.144.594,1.314c-.132.036-.31.1-.531.18s-.441.174-.658.27a4.85,4.85,0,0,0-.5.252,4.189,4.189,0,0,1,.271.9,5.233,5.233,0,0,1,.107,1.026,4.882,4.882,0,0,1-.341,1.908,2.641,2.641,0,0,1-1.053,1.251,3.459,3.459,0,0,1-1.845.441,4.273,4.273,0,0,1-.738-.063,6.079,6.079,0,0,1-.666-.153q-.109.162-.207.342a.763.763,0,0,0-.1.378.369.369,0,0,0,.216.324,1.923,1.923,0,0,0,.72.18l2.2.216a2.829,2.829,0,0,1,1.89.8,2.617,2.617,0,0,1,.612,1.827,2.755,2.755,0,0,1-.423,1.566,2.583,2.583,0,0,1-1.314.954A6.894,6.894,0,0,1,222.789,211.884Zm.27-1.836a4.367,4.367,0,0,0,1.511-.2.721.721,0,0,0,.5-.72.8.8,0,0,0-.127-.468.9.9,0,0,0-.449-.3,3.856,3.856,0,0,0-.918-.171l-1.782-.162a3.226,3.226,0,0,0-.352.333,1.478,1.478,0,0,0-.242.369.991.991,0,0,0-.091.414.723.723,0,0,0,.433.675A3.573,3.573,0,0,0,223.059,210.048Zm-.144-6.426a1.019,1.019,0,0,0,.522-.117.76.76,0,0,0,.306-.378,2.343,2.343,0,0,0,.144-.657c.023-.264.036-.57.036-.918s-.013-.654-.036-.918a2.746,2.746,0,0,0-.135-.666.758.758,0,0,0-.3-.4,1.2,1.2,0,0,0-1.071,0,.742.742,0,0,0-.306.387,2.758,2.758,0,0,0-.144.657,8.187,8.187,0,0,0-.045.936c0,.336.011.633.036.891a2.256,2.256,0,0,0,.143.648.847.847,0,0,0,.316.4A.951.951,0,0,0,222.915,203.622Z" fill="#fff"/><path d="M230.024,208.464v-10.4h2.449v1.6a4.445,4.445,0,0,1,1.08-1.323,1.933,1.933,0,0,1,1.187-.4,1.755,1.755,0,0,1,.19.009c.053.006.117.015.188.027v2.538a3.168,3.168,0,0,0-.476-.153,2.264,2.264,0,0,0-.532-.063,1.7,1.7,0,0,0-.881.234,2.433,2.433,0,0,0-.756.774v7.164Z" fill="#fff"/><path d="M240.1,208.626a1.988,1.988,0,0,1-1.206-.369,2.451,2.451,0,0,1-.773-.936,2.7,2.7,0,0,1-.271-1.179,3.24,3.24,0,0,1,1.315-2.754,6.664,6.664,0,0,1,1.35-.783q.755-.333,1.53-.6v-.9a3.82,3.82,0,0,0-.064-.756.872.872,0,0,0-.233-.468.75.75,0,0,0-.531-.162.8.8,0,0,0-.495.144.784.784,0,0,0-.27.4,2.432,2.432,0,0,0-.1.6l-.036.63-2.321-.09a3.839,3.839,0,0,1,.891-2.655,3.418,3.418,0,0,1,2.547-.855,2.786,2.786,0,0,1,2.277.864,3.572,3.572,0,0,1,.711,2.34v4.806q0,.576.026,1.044c.019.312.042.594.072.846s.057.474.081.666h-2.2c-.035-.24-.081-.513-.135-.819l-.117-.675a2.663,2.663,0,0,1-.683,1.143A1.831,1.831,0,0,1,240.1,208.626Zm.9-1.818a.879.879,0,0,0,.44-.117,1.681,1.681,0,0,0,.369-.279,1.422,1.422,0,0,0,.235-.288v-2.9q-.4.234-.747.468a3.436,3.436,0,0,0-.613.513,2.032,2.032,0,0,0-.395.6,1.936,1.936,0,0,0-.136.756,1.6,1.6,0,0,0,.226.909A.708.708,0,0,0,241.005,206.808Z" fill="#fff"/><path d="M248.024,208.464v-10.4h2.358v.9a3.387,3.387,0,0,1,1.17-.837,3.312,3.312,0,0,1,1.278-.261,1.885,1.885,0,0,1,1.071.306,1.768,1.768,0,0,1,.675.972,3.679,3.679,0,0,1,1.26-.981,3.326,3.326,0,0,1,1.368-.3,1.784,1.784,0,0,1,.99.279,1.891,1.891,0,0,1,.684.828,3.3,3.3,0,0,1,.252,1.377v8.118h-2.34v-7.9a1.265,1.265,0,0,0-.2-.819.7.7,0,0,0-.558-.225,1.536,1.536,0,0,0-.638.162,2.2,2.2,0,0,0-.64.45v8.334h-2.321v-7.9a1.23,1.23,0,0,0-.207-.819.736.736,0,0,0-.568-.225,1.486,1.486,0,0,0-.63.162,2.523,2.523,0,0,0-.648.45v8.334Z" fill="#fff"/></g></svg>