<svg xmlns="http://www.w3.org/2000/svg" viewBox="0 0 30 30"><defs><style>.cls-1{fill:#c8161d;}</style></defs><g id="Layer_2" data-name="Layer 2"><g id="レイヤー_1" data-name="レイヤー 1"><path class="cls-1" d="M18.53,20.47a1,1,0,0,0-1.3-.07l-1.82,1.47a1,1,0,0,1-1.24,0,25,25,0,0,1-3.26-2.76,24.73,24.73,0,0,1-2.77-3.28,1,1,0,0,1,0-1.23L9.6,12.77a1,1,0,0,0-.07-1.3L6,8a1,1,0,0,0-1.31-.06L.35,11.6a1,1,0,0,0-.23,1.2S.7,14,1.25,14.93a43.22,43.22,0,0,0,6.13,7.69,42.77,42.77,0,0,0,7.69,6.13c.93.55,2.13,1.14,2.13,1.14a1,1,0,0,0,1.2-.24l3.68-4.38A1,1,0,0,0,22,24Z"/><path class="cls-1" d="M19.39,15.78l1.45-.23a7.71,7.71,0,0,0-6.39-6.39l-.23,1.45a6.25,6.25,0,0,1,5.17,5.17Z"/><path class="cls-1" d="M25.24,4.76A17,17,0,0,0,15.89,0l-.22,1.45A15.51,15.51,0,0,1,28.55,14.33L30,14.1A17,17,0,0,0,25.24,4.76Z"/><path class="cls-1" d="M15.17,4.57,14.94,6a10.82,10.82,0,0,1,9,9l1.46-.23A12.32,12.32,0,0,0,15.17,4.57Z"/></g></g></svg>