<svg xmlns="http://www.w3.org/2000/svg" width="305.531" height="53.613" viewBox="0 0 305.531 53.613">
  <g id="Group_227" data-name="Group 227" transform="translate(-546.673 -3305.78)">
    <path id="Path_12508" data-name="Path 12508" d="M587.981,3346.5l-4.345-9.082H565.228l-4.639,9.082-.244.635q-.048.049-.733,1.416a9.3,9.3,0,0,0-1.025,4.2q0,3.713,4.1,5.274v.879a28.661,28.661,0,0,1-2.88-.244,44.392,44.392,0,0,0-5.176-.342,48.229,48.229,0,0,0-5.176.342q-2.1.243-2.783.244v-.879q5.372-2.734,9.765-11.279l16.211-31.543a14.021,14.021,0,0,0-5.1-5.811,15.246,15.246,0,0,0-7.593-2.246v-.879h1.709q2.295,0,6.3.293,4.2.294,5.469.293l24.658,51.465q-4.735.1-11.377.586v-.879q3.711-.633,3.711-4Q590.423,3351.532,587.981,3346.5Zm-20.849-12.744h14.746l-7.08-14.843Zm34.863,24.561-24.658-51.465h4.785q.977,2.54,2.734,6.4,1.953,4.151,2.2,4.931a6.031,6.031,0,0,1,.439,1.026l11.475,23.779q6.006,12.4,12.793,15.039v.879Q605.12,3358.318,601.995,3358.319Z" fill="#c8161d"/>
    <path id="Path_12509" data-name="Path 12509" d="M618.876,3313.739q-5.566,7.177-5.566,19.092,0,13.965,6.884,21a16.767,16.767,0,0,1-8.3-7.959,26.753,26.753,0,0,1-3.077-12.891,24.87,24.87,0,0,1,1.612-9.082,19.334,19.334,0,0,1,3.613-6.4A17.63,17.63,0,0,1,618.876,3313.739Zm40.625,33.984h.977l-1.563,8.252a52.4,52.4,0,0,1-8.74,2.588,41.817,41.817,0,0,1-8.106.83q-11.817,0-18.506-6.885-6.688-6.836-6.689-19.873,0-12.987,7.178-19.873,7.129-6.835,18.847-6.835A51.267,51.267,0,0,1,660.087,3309q-.391,6.152-.391,7.275,0,1.026.049,2v1.172a45.659,45.659,0,0,1-.244,4.834h-.83q-3.029-14.746-16.9-14.746-9.375,0-14.941,6.1-5.566,6.055-5.566,17.481,0,10.01,5.127,16.259,5.078,6.252,15.332,6.25a23.632,23.632,0,0,0,10.351-2.246A19.937,19.937,0,0,0,659.5,3347.723Z" fill="#c8161d"/>
    <path id="Path_12510" data-name="Path 12510" d="M673.752,3313.739q-5.566,7.177-5.566,19.092,0,13.965,6.884,21a16.767,16.767,0,0,1-8.3-7.959,26.752,26.752,0,0,1-3.077-12.891,24.87,24.87,0,0,1,1.612-9.082,19.3,19.3,0,0,1,3.613-6.4A17.628,17.628,0,0,1,673.752,3313.739Zm40.625,33.984h.977l-1.563,8.252a52.43,52.43,0,0,1-8.74,2.588,41.826,41.826,0,0,1-8.106.83q-11.817,0-18.506-6.885-6.69-6.836-6.689-19.873,0-12.987,7.178-19.873,7.128-6.835,18.847-6.835A51.272,51.272,0,0,1,714.963,3309q-.391,6.152-.391,7.275,0,1.026.049,2v1.172a45.937,45.937,0,0,1-.244,4.834h-.83q-3.028-14.746-16.9-14.746-9.375,0-14.941,6.1-5.566,6.055-5.566,17.481,0,10.01,5.126,16.259,5.078,6.252,15.333,6.25a23.635,23.635,0,0,0,10.351-2.246A19.954,19.954,0,0,0,714.377,3347.723Z" fill="#c8161d"/>
    <path id="Path_12511" data-name="Path 12511" d="M727.877,3306.854h1.611v51.465h-3.222q-1.71,0-7.227.586v-.879a7.03,7.03,0,0,0,4-2.49,10.287,10.287,0,0,0,1.9-4.248,65.782,65.782,0,0,0,.537-10.743v-20.458q0-7.08-1.9-9.717a7.638,7.638,0,0,0-4.541-3.223v-.879Q722.016,3306.464,727.877,3306.854Zm24.658,51.465H733v-51.465h14.209q4,0,15.137-.586-.1,1.466-.1,2.2,0,.976.244,4.541.147,2.392.147,2.587v1.221h-.83q-1.758-4.2-4-5.42-2.246-1.172-8.448-1.172H741.6a22.151,22.151,0,0,0-3.418.245q-.879,1.659-1.026,7.91l-.1,3.32v7.959H747.6q5.957,0,7.91-1.026t3.125-4.882h1.074q-.391,4.393-.391,7.617,0,2.05.293,5.371.1.978.244,3.857h-1.074q-.439-4.3-2.588-5.908-2.2-1.611-6.884-1.611H737.057v10.644a74.857,74.857,0,0,0,.683,10.791,31.006,31.006,0,0,0,4.4.293h7.422q6.054,0,9.131-1.367,3.222-1.416,6.347-6.3h.977a47.421,47.421,0,0,1-1.612,5.176,55.831,55.831,0,0,0-1.9,6.592A96.03,96.03,0,0,0,752.535,3358.319Z" fill="#c8161d"/>
    <path id="Path_12512" data-name="Path 12512" d="M771.514,3341.375h1.123a14.1,14.1,0,0,0,5.029,10.3,15.573,15.573,0,0,0,10.547,4,10.754,10.754,0,0,0,7.471-2.588,8.054,8.054,0,0,0,2.88-6.2,6.969,6.969,0,0,0-2.783-5.908q-2.685-2.051-10.6-4.639a71.631,71.631,0,0,1-9.034-3.467,12.425,12.425,0,0,1-4.882-4.345,10.81,10.81,0,0,1-1.905-6.25,13.106,13.106,0,0,1,2.588-7.568,11.541,11.541,0,0,0-.586,3.32,12.327,12.327,0,0,0,1.807,6.689,12.59,12.59,0,0,0,4.59,4.492,50.381,50.381,0,0,0,9.131,3.565q8.349,2.54,12.06,5.615a9.9,9.9,0,0,1,3.565,8.008,12.837,12.837,0,0,1-3.711,8.935q-3.761,4.054-11.231,4.053a43.86,43.86,0,0,1-8.4-1.123,42.236,42.236,0,0,0-7.032-1.025l-.341-.391q.048-.829.048-2.148,0-1.563-.292-4.834-.246-3.272-.245-4.883A28.789,28.789,0,0,1,771.514,3341.375Zm34.472-20.409h-1.025a9.282,9.282,0,0,0-4.492-8.4,19.692,19.692,0,0,0-10.547-2.685,14.425,14.425,0,0,0-8.106,2.1q-3.222,2.1-3.222,5.029a5.733,5.733,0,0,0,2.539,4.932q2.637,1.953,10.4,4.639a75.443,75.443,0,0,1,10.108,4.052,14.409,14.409,0,0,1,5.127,4.883,13.423,13.423,0,0,1,2.05,7.276,11.416,11.416,0,0,1-4.492,9.57,10.844,10.844,0,0,0,1.66-6.445,13.276,13.276,0,0,0-1.806-6.934,15.322,15.322,0,0,0-4.688-4.883,41.68,41.68,0,0,0-9.228-3.955q-9.619-3.174-12.549-5.42-2.93-2.3-2.93-7.129a10.124,10.124,0,0,1,4.492-8.74q4.492-3.077,12.744-3.076a60.339,60.339,0,0,1,13.721,1.953v.342l.1,1.855q0,1.466.1,3.516.145,2.49.146,4.4Q806.084,3319.111,805.986,3320.966Z" fill="#c8161d"/>
    <path id="Path_12513" data-name="Path 12513" d="M814.9,3341.375h1.123a14.1,14.1,0,0,0,5.03,10.3,15.571,15.571,0,0,0,10.547,4,10.751,10.751,0,0,0,7.47-2.588,8.055,8.055,0,0,0,2.881-6.2,6.972,6.972,0,0,0-2.783-5.908q-2.687-2.051-10.6-4.639a71.6,71.6,0,0,1-9.033-3.467,12.428,12.428,0,0,1-4.883-4.345,10.817,10.817,0,0,1-1.9-6.25,13.1,13.1,0,0,1,2.588-7.568,11.508,11.508,0,0,0-.586,3.32,12.31,12.31,0,0,0,1.807,6.689,12.587,12.587,0,0,0,4.589,4.492,50.412,50.412,0,0,0,9.131,3.565q8.35,2.54,12.061,5.615a9.9,9.9,0,0,1,3.564,8.008,12.832,12.832,0,0,1-3.711,8.935q-3.759,4.054-11.23,4.053a43.859,43.859,0,0,1-8.4-1.123,42.228,42.228,0,0,0-7.031-1.025l-.342-.391q.049-.829.049-2.148,0-1.563-.293-4.834-.245-3.272-.244-4.883A28.808,28.808,0,0,1,814.9,3341.375Zm34.473-20.409h-1.025a9.287,9.287,0,0,0-4.493-8.4,19.688,19.688,0,0,0-10.546-2.685,14.421,14.421,0,0,0-8.106,2.1q-3.222,2.1-3.223,5.029a5.732,5.732,0,0,0,2.54,4.932q2.636,1.953,10.4,4.639a75.472,75.472,0,0,1,10.107,4.052,14.393,14.393,0,0,1,5.127,4.883,13.416,13.416,0,0,1,2.051,7.276,11.419,11.419,0,0,1-4.492,9.57,10.851,10.851,0,0,0,1.66-6.445,13.267,13.267,0,0,0-1.807-6.934,15.319,15.319,0,0,0-4.687-4.883,41.714,41.714,0,0,0-9.229-3.955q-9.619-3.174-12.548-5.42-2.931-2.3-2.93-7.129a10.124,10.124,0,0,1,4.492-8.74q4.491-3.077,12.744-3.076a60.353,60.353,0,0,1,13.721,1.953v.342l.1,1.855q0,1.466.1,3.516.147,2.49.147,4.4Q849.47,3319.111,849.372,3320.966Z" fill="#c8161d"/>
  </g>
</svg>
