<svg xmlns="http://www.w3.org/2000/svg" width="301" height="51" viewBox="0 0 301 51"><g transform="translate(-549.5 -2678.748)"><path d="M649.983,2697.012a15.915,15.915,0,0,0-.82,1.781,28.532,28.532,0,0,1-2.7,5.441,51.847,51.847,0,0,1,4.762,4.4l-2.061,2.3a40.017,40.017,0,0,0-4.421-4.4,25.015,25.015,0,0,1-7.442,6.182l-2.3-2.061a21.821,21.821,0,0,0,7.6-5.9,52.21,52.21,0,0,0-5.362-3.781l1.721-2.06c1.6,1,3.66,2.4,5.281,3.6a21.81,21.81,0,0,0,2.2-4.742,14.63,14.63,0,0,0,.48-1.84Z" fill="#fff"/><path d="M653.779,2707.9c.781.06,1.721.14,2.5.14h11.483a20.3,20.3,0,0,0,2.2-.14v3.06a21.705,21.705,0,0,0-2.2-.12H656.28c-.78,0-1.76.061-2.5.12Zm1.681-9.782c.721.08,1.66.12,2.341.12h8.281c.8,0,1.661-.06,2.221-.12v2.9c-.58-.02-1.521-.08-2.221-.08H657.82c-.759,0-1.679.04-2.36.08Z" fill="#fff"/><path d="M685.583,2709.515c.52,0,1.44-.02,1.96-.08v2.581c-.4-.02-1.38-.06-1.9-.06H675.1c-.72,0-1.221.02-1.981.06v-2.6a19.206,19.206,0,0,0,1.981.1h6.481c.28-1.7.72-4.541.78-5.661h-5.4c-.64,0-1.42.06-2,.1v-2.641c.519.06,1.439.12,1.98.12h5.122a4.746,4.746,0,0,0,1.5-.22l1.919.941a5.683,5.683,0,0,0-.2.84c-.16,1.18-.68,4.621-.98,6.521Z" fill="#fff"/><path d="M690.34,2702.434c.721.06,2.181.12,3.221.12H704.3c.921,0,1.82-.08,2.341-.12v3.14c-.481-.02-1.5-.1-2.341-.1H693.561c-1.14,0-2.481.04-3.221.1Z" fill="#fff"/><path d="M718.042,2708.815c.04-.58.061-1.5.08-2.361-1.46.8-2.26,1.581-2.26,2.561,0,1.1.94,1.4,2.88,1.4a30.287,30.287,0,0,0,5.621-.58l-.079,2.581a54.843,54.843,0,0,1-5.6.32c-3.1,0-5.442-.74-5.442-3.3,0-2.52,2.4-4.121,4.661-5.281a1.547,1.547,0,0,0-1.38-.68,4.9,4.9,0,0,0-3.1,1.36,25.268,25.268,0,0,0-1.84,2.181l-2.12-1.581a19.365,19.365,0,0,0,4.36-5.441h-.24c-.8,0-2.26-.04-3.341-.14v-2.321a25.273,25.273,0,0,0,3.482.221h.96a11.036,11.036,0,0,0,.4-2.261l2.6.22c-.1.48-.241,1.16-.481,1.961a45.776,45.776,0,0,0,5.6-.58l-.021,2.32a64.558,64.558,0,0,1-6.461.52,12.155,12.155,0,0,1-1.14,2,6.178,6.178,0,0,1,2.24-.4,2.7,2.7,0,0,1,2.641,1.541c1.02-.48,1.86-.821,2.68-1.18.761-.341,1.461-.681,2.181-1.021l1,2.3a21.061,21.061,0,0,0-2.361.84c-.879.34-2,.78-3.22,1.34.02,1.1.06,2.561.08,3.461Z" fill="#fff"/><path d="M743.644,2711.015c.679,0,.8-.34.9-2.66a7.575,7.575,0,0,0,2.181.94c-.26,3.161-.88,3.981-2.861,3.981h-2.64c-2.381,0-2.941-.72-2.941-2.961v-3.2h-2.421c-.42,3.18-1.6,5.281-6.541,6.4a7.536,7.536,0,0,0-1.32-2.12c4.1-.761,4.961-2.1,5.3-4.281H730.86v-11.743h13.083v11.743h-3.26v3.18c0,.64.12.72.88.72Zm-10.483-12.322h8.361v-1.24h-8.361Zm0,3.161h8.361v-1.241h-8.361Zm0,3.18h8.361v-1.24h-8.361Z" fill="#fff"/><path d="M762.223,2697.973q-.72.45-1.38.9c-1.061.74-3.141,2.5-4.381,3.5a6.663,6.663,0,0,1,1.86-.22c3.361,0,5.921,2.1,5.921,4.981,0,3.12-2.381,5.6-7.161,5.6-2.761,0-4.842-1.26-4.842-3.241a3.329,3.329,0,0,1,3.562-3.08,3.987,3.987,0,0,1,4.22,3.38,2.887,2.887,0,0,0,1.621-2.7c0-1.78-1.8-2.98-4.1-2.98-3.041,0-5.021,1.62-7.142,4.021l-1.8-1.861c1.4-1.14,3.781-3.16,4.961-4.12,1.1-.921,3.161-2.581,4.141-3.441-1.02.02-3.741.14-4.781.22a13.011,13.011,0,0,0-1.62.16l-.08-2.581c.559.06,1.24.1,1.8.1,1.041,0,5.281-.1,6.4-.2a9.543,9.543,0,0,0,1.52-.2Zm-4.481,12.462c-.12-1.28-.86-2.12-1.94-2.12-.74,0-1.221.44-1.221.94,0,.74.84,1.24,2,1.24A10.431,10.431,0,0,0,757.742,2710.435Z" fill="#fff"/><rect width="300" height="50" transform="translate(550 2679.248)" fill="none" stroke="#fff" stroke-miterlimit="10" stroke-width="1"/><path d="M573.562,2713.522l-.7-1.487h-.471v2.622h.492v-1.494l.5,1.039h.352l.488-1.033v1.488h.492v-2.622h-.471Z" fill="#fff"/><path d="M575.468,2714.657h1.715v-.453h-1.224v-.645H577v-.449h-1.045v-.623h1.224v-.452h-1.715Z" fill="#fff"/><path d="M579.317,2713.669l-1.076-1.634h-.434v2.622h.492v-1.638l1.076,1.638h.433v-2.622h-.491Z" fill="#fff"/><path d="M581.945,2713.738a.485.485,0,0,1-.127.359.452.452,0,0,1-.34.128.445.445,0,0,1-.338-.127.5.5,0,0,1-.125-.36v-1.7h-.491v1.72a.959.959,0,0,0,.072.377.865.865,0,0,0,.2.291.914.914,0,0,0,.3.189,1.09,1.09,0,0,0,.752,0,.958.958,0,0,0,.306-.188.873.873,0,0,0,.2-.292.961.961,0,0,0,.073-.377v-1.72h-.492Z" fill="#fff"/><path d="M572.431,2703.192c.99,1.181,1.5,1.273,2.231,1.286a1.686,1.686,0,0,1,1.637.67l.343.4.868-1.028-.2-.233a1.691,1.691,0,0,1-.387-1.728c.109-.72.105-1.24-.893-2.414l-1.439-1.7c-.541-.64-1.4.049-.849.7l1.525,1.806a.322.322,0,0,1-.015.452l-.062.053a.323.323,0,0,1-.449-.062l-1.533-1.815a.571.571,0,1,0-.869.735l1.532,1.815a.319.319,0,0,1-.014.452l-.062.053a.321.321,0,0,1-.448-.062l-1.524-1.8c-.554-.656-1.377.079-.837.718Z" fill="#fff"/><path d="M581.652,2709.427l-2.56-3.031-.868,1.029,2.413,2.859Z" fill="#fff"/><path d="M574.07,2709.441l.017-.01,1.01.853,3.775-4.471c1.347-1.547,1.369.308,3-1.74a13.828,13.828,0,0,0,1.68-3.246c.545-1.326-.6-1.906-1.289-1.089l-3.845,4.553-4.337,5.136Z" fill="#fff"/><path d="M568.5,2693.447a1.309,1.309,0,0,1,0-2.618h20.448v-1.7H568.5a3.005,3.005,0,0,0-3,3v24.22a3,3,0,0,0,3,3h21.3v-25.915Zm19.6,24.22H568.5a1.311,1.311,0,0,1-1.309-1.309v-21.519a2.994,2.994,0,0,0,1.309.3h19.6Z" fill="#fff"/></g></svg>