<svg xmlns="http://www.w3.org/2000/svg" width="13.088" height="30.399" viewBox="0 0 13.088 30.399"><g transform="translate(-704.464 -714.641)"><path d="M704.464,717.249a2.418,2.418,0,0,1,.712-1.824,2.954,2.954,0,0,1,1.88-.784l.432,1.424a3.144,3.144,0,0,0-1.32.432,1.018,1.018,0,0,0-.44.9.9.9,0,0,0,.264.7,1.018,1.018,0,0,0,.712.24,1.476,1.476,0,0,0,.72-.176,2.426,2.426,0,0,0,.656-.576L709.44,716a4.243,4.243,0,0,1,.928-.808,2.8,2.8,0,0,1,2.568-.032,1.927,1.927,0,0,1,.768.832,2.81,2.81,0,0,1,.264,1.256,2.059,2.059,0,0,1-.712,1.688,3.018,3.018,0,0,1-1.72.664l-.432-1.152a4.207,4.207,0,0,0,.84-.192,1.335,1.335,0,0,0,.56-.352.857.857,0,0,0,.2-.592.844.844,0,0,0-.28-.664.971.971,0,0,0-.664-.248,1.13,1.13,0,0,0-.472.1,1.351,1.351,0,0,0-.456.36l-1.5,1.632a6.882,6.882,0,0,1-.656.632,3.209,3.209,0,0,1-.8.488,2.626,2.626,0,0,1-1.04.192,2.493,2.493,0,0,1-1.312-.32,1.991,1.991,0,0,1-.792-.9A3.2,3.2,0,0,1,704.464,717.249Z" fill="#fff"/><path d="M704.464,723.74a2.755,2.755,0,0,1,.456-1.72,2.232,2.232,0,0,1,1.288-.784,8.3,8.3,0,0,1,1.936-.2h2.128a8.234,8.234,0,0,1,1.992.208,2.192,2.192,0,0,1,1.264.792,2.8,2.8,0,0,1,.44,1.7,3.081,3.081,0,0,1-.328,1.56,1.7,1.7,0,0,1-.976.76,5.349,5.349,0,0,1-1.608.208h-.544v-1.552h.56a4.555,4.555,0,0,0,.96-.08.863.863,0,0,0,.512-.288,1.169,1.169,0,0,0-.032-1.232,1.041,1.041,0,0,0-.648-.3,8.356,8.356,0,0,0-1.24-.072h-2.912a3.7,3.7,0,0,0-1.584.224.836.836,0,0,0-.4.8.862.862,0,0,0,.2.632.992.992,0,0,0,.568.256,5.6,5.6,0,0,0,.832.056h.752v1.552h-.64a5.254,5.254,0,0,1-1.6-.216,1.833,1.833,0,0,1-1.024-.768A2.863,2.863,0,0,1,704.464,723.74Z" fill="#fff"/><path d="M704.592,727.752h9.248v1.712h-1.312a3.1,3.1,0,0,1,1.136,1.024,2.069,2.069,0,0,1,.288,1.023v.121a1.064,1.064,0,0,1-.016.151h-1.888a2.75,2.75,0,0,0,.136-.439,2.311,2.311,0,0,0,.056-.5,1.467,1.467,0,0,0-.184-.728,1.948,1.948,0,0,0-.712-.648h-6.752Z" fill="#fff"/><path d="M704.464,735.572a2.768,2.768,0,0,1,.416-1.616,2.229,2.229,0,0,1,1.184-.84,5.878,5.878,0,0,1,1.808-.248h2.688a5.882,5.882,0,0,1,1.808.248,2.233,2.233,0,0,1,1.184.84,2.768,2.768,0,0,1,.416,1.616,2.735,2.735,0,0,1-.416,1.608,2.259,2.259,0,0,1-1.184.832,5.914,5.914,0,0,1-1.808.248h-2.688a5.91,5.91,0,0,1-1.808-.248,2.255,2.255,0,0,1-1.184-.832A2.735,2.735,0,0,1,704.464,735.572Zm1.264,0a.788.788,0,0,0,.288.7,1.549,1.549,0,0,0,.76.24c.314.026.642.04.984.04h2.9c.352,0,.682-.014.992-.04a1.592,1.592,0,0,0,.76-.24.78.78,0,0,0,.3-.7.8.8,0,0,0-.3-.7,1.522,1.522,0,0,0-.76-.248c-.31-.027-.64-.04-.992-.04h-2.9q-.513,0-.984.04a1.483,1.483,0,0,0-.76.248A.809.809,0,0,0,705.728,735.572Z" fill="#fff"/><path d="M704.592,739.866h12.96v1.712h-12.96Z" fill="#fff"/><path d="M704.592,743.328h12.96v1.712h-12.96Z" fill="#fff"/></g></svg>