<svg xmlns="http://www.w3.org/2000/svg" width="267.004" height="52.636" viewBox="0 0 267.004 52.636"><g transform="translate(-566.474 -2468.614)"><path d="M578.485,2469.2l22.266,47.413-2.246,4.638-20.215-43.066-1.269,29.15q-.1,4.395-.1,3.614,0,8.544,6.592,9.423v.879q-.05,0-1.368-.146-5.469-.439-7.226-.44-2.345,0-8.447.586v-.879q6.2-1.611,6.738-12.7l1.416-33.35a14.1,14.1,0,0,0-8.154-4.834v-.878q3.954.438,8.447.488Zm24.17,34.034L618.28,2469.2h3.76l2.3,51.465h-1.9q-2.052,0-5.371.293l-3.223.293v-.879q5.859-1.611,5.859-10.5,0,.147-.1-3.271l-1.27-28.467L602.7,2512.364,582.489,2469.2h4.151Zm25.293,17.431L625.6,2469.2h1.661q3.564,0,10.009-.585v.878a7.678,7.678,0,0,0-5.175,3.125,9.961,9.961,0,0,0-1.905,6.153l.1,5.224,1.074,23.389q.294,6.4,2,9.424a6.822,6.822,0,0,0,5.371,3.564v.879Q631.512,2520.665,627.948,2520.664Z" fill="#fff"/><path d="M651.67,2469.2h1.611v51.465h-3.222q-1.71,0-7.227.586v-.879a7.026,7.026,0,0,0,4-2.49,10.288,10.288,0,0,0,1.9-4.248,65.88,65.88,0,0,0,.537-10.742v-20.459q0-7.08-1.9-9.717a7.638,7.638,0,0,0-4.541-3.223v-.878Q645.81,2468.809,651.67,2469.2Zm24.658,51.465H656.8V2469.2h14.209q4,0,15.137-.585-.1,1.464-.1,2.2,0,.976.244,4.541.147,2.392.147,2.588v1.22H685.6q-1.756-4.2-4-5.42-2.247-1.172-8.448-1.171h-7.763a22.148,22.148,0,0,0-3.418.244q-.879,1.66-1.026,7.91l-.1,3.32V2492H671.4q5.958,0,7.911-1.025t3.125-4.883h1.074q-.391,4.395-.391,7.617,0,2.05.293,5.371.1.978.244,3.858h-1.074q-.44-4.3-2.588-5.909-2.2-1.611-6.885-1.611H660.85v10.645a74.876,74.876,0,0,0,.683,10.791,31.15,31.15,0,0,0,4.395.293h7.422q6.054,0,9.13-1.368,3.224-1.415,6.348-6.3h.977a47.477,47.477,0,0,1-1.612,5.175,55.935,55.935,0,0,0-1.9,6.592A96.371,96.371,0,0,0,676.328,2520.664Z" fill="#fff"/><path d="M700.161,2469.2l56.25,48.047v4h-.976L711.2,2483.6v22.705q0,7.422,1.905,10.3a9.1,9.1,0,0,0,6.005,3.759v.879q-7.373-.585-10.009-.586-2.979,0-8.985.586v-.879q4.2-.977,5.713-3.955t1.514-10.547l-.049-25.488-3.516-2.978q-7.323-6.25-12.353-7.911v-.878Zm56.25,43.262L705.679,2469.2h5.761l41.065,34.961V2483.9a34.108,34.108,0,0,0-.684-7.813,8.318,8.318,0,0,0-2.783-4.345,11.22,11.22,0,0,0-5.371-2.247v-.878q.048,0,1.709.146,6.4.439,8.691.439,2.1,0,10.01-.585v.878a7.974,7.974,0,0,0-4.443,2.1,8.428,8.428,0,0,0-2.539,4.1,27.675,27.675,0,0,0-.684,6.982Z" fill="#fff"/><path d="M767.706,2468.614l10.889.585v33.887q0,7.569,1.025,10.6a13.673,13.673,0,0,0,4.443,6.006,12.4,12.4,0,0,1-5.517-2.295,8.549,8.549,0,0,1-3.272-4.248,28.453,28.453,0,0,1-.781-7.959v-23.34q0-5.956-1.611-8.789a7.312,7.312,0,0,0-5.176-3.565Zm51.172.585v51.465h-4.59a18.4,18.4,0,0,0,.537-4.736,30.491,30.491,0,0,1-16.992,5.322,17.684,17.684,0,0,1-9.131-2.295,11.627,11.627,0,0,1-5.273-5.908,29.585,29.585,0,0,1-1.416-10.3V2469.2q5.127,0,11.328-.585v.878a7.724,7.724,0,0,0-4.346,2.1,7.986,7.986,0,0,0-2.246,3.906,30.15,30.15,0,0,0-.586,6.983l-.049,1.025v18.652a31.1,31.1,0,0,0,.928,8.985,8.553,8.553,0,0,0,4,4.785,15.035,15.035,0,0,0,7.861,1.9q7.52,0,15.918-5.517V2483.8a43.063,43.063,0,0,0-.537-8.057,7.975,7.975,0,0,0-2.1-4.052,8.89,8.89,0,0,0-4.15-2.2v-.878q.292,0,1.367.048t2.295.2Q815.7,2469.1,818.878,2469.2Zm6.3,51.465h-2.783V2469.2q3.662-.1,5.566-.244l5.518-.341v.878a7.75,7.75,0,0,0-4.3,2.3,8.917,8.917,0,0,0-2.246,4.493,59.584,59.584,0,0,0-.489,9.521v21.484q0,12.111,7.032,13.086v.879Q827.033,2520.665,825.177,2520.664Z" fill="#fff"/></g></svg>